<svg id="Layer_1" data-name="Layer 1" xmlns="http://www.w3.org/2000/svg" viewBox="0 0 200 150.82"><defs><style>.cls-1{fill:#fff;}</style></defs><title>micro print logo only</title><path class="cls-1" d="M51.84,141.52c.08-3.5-.19-7-.11-10.38l-4,.05v.19c-.14,4.31-.05,8.62,0,12.66-.08,1.06-.57,2.11-1.65,1.9-1.3-.08-1.54-2-1.63-3.09v-.16a13.74,13.74,0,0,0-4.2-.05c-.14,2.76.35,6.94,3.31,7.8A7.94,7.94,0,0,0,48.7,150C52.06,148.75,51.71,144.47,51.84,141.52Z"/><path class="cls-1" d="M80.84,131.36s0,0,0,.05a18.45,18.45,0,0,0,.11,4.25c.43.14,2.41-.11,3.25.33l0,0c.43,10.11.11,14.12.19,14.44,1.3-.22,3.12,0,4.44-.19v-.05c-.22-11.84-.24-13.82-.14-14.34,0,0,0-.05,0-.08h.08a15.93,15.93,0,0,1,3.31,0,22,22,0,0,0,.11-4.2A100.82,100.82,0,0,0,80.84,131.36Z"/><path class="cls-1" d="M65,150.35a11.06,11.06,0,0,0,.22-3.55v-.05c-2.47.08-4.72-.14-7.1-.14l0,0a14.14,14.14,0,0,1,0-3.39c.38-.3,2.17,0,3.28-.3a28.81,28.81,0,0,0-.05-3.77v0c-1.11,0-2.25,0-3.33-.08l0,0a15.45,15.45,0,0,1,0-3.17l0,0H58c2.38-.22,4.8.19,7.1-.33v0a26.08,26.08,0,0,0,0-3.85c0-.16-7-.05-11.22.16-.35,6.21,0,12.25,0,18.54C57.37,150.6,61.3,150.33,65,150.35Z"/><path class="cls-1" d="M71.11,135.75a2.68,2.68,0,0,1,1.36-.43c2.11-.08,1.68,2.17,1.9,3.6a9.77,9.77,0,0,0,4,.11c1.73-5-3.41-9.57-8.37-7.94a4,4,0,0,0-1.38.62,5.58,5.58,0,0,0-1.49,2.36,3.73,3.73,0,0,0-.3,1.82c-.08,5.85-.05,8.65.08,11.25.3,3,3.58,4,6.15,3.6a5.93,5.93,0,0,0,5.28-7.89c-1-.3-2.6,0-3.63-.16-.19.89.05,1.84-.35,2.68a1.84,1.84,0,0,1-1.92.95,2.6,2.6,0,0,1-1.54-2.49A53,53,0,0,1,71,136.1,1,1,0,0,1,71.11,135.75Z"/><path class="cls-1" d="M12.09,137.86a5.88,5.88,0,0,0,0-.7v0C11.79,131,4.47,130.41,0,131.6c.22,6,0,13.41.19,18.67a16.66,16.66,0,0,0,4.53-.11l.08,0v0c-.14-5.26,0-5.8-.11-6.8A6.55,6.55,0,0,0,12.09,137.86Zm-7.8,1.6H4.2A19.51,19.51,0,0,1,4,135.39a.1.1,0,0,1,.08,0,3.81,3.81,0,0,1,3.33.62,1.88,1.88,0,0,1,.49,2.68C7,139.54,5.42,139.38,4.28,139.46Z"/><path class="cls-1" d="M39.19,144.31c.14-1.87,0-3.63.14-5.56a22.16,22.16,0,0,0-.05-2.68,6.14,6.14,0,0,0-.43-1.68,4,4,0,0,0-1.11-1.65,7.91,7.91,0,0,0-7.83-.49,2.76,2.76,0,0,0-.62.49,7.1,7.1,0,0,0-1.44,4.63,80.89,80.89,0,0,0,.14,8.51,6.27,6.27,0,0,0,.65,3c.65,1.44,2.09,1.76,3.58,1.9a8.45,8.45,0,0,0,3.09-.27,4.89,4.89,0,0,0,2.79-1.65,8.05,8.05,0,0,0,1-3.66Zm-3.25-2c0,.08,0,.68-.05,1.41-.14,1.57.14,1.57-.54,2.47a2.58,2.58,0,0,1-4.09-.35,28.84,28.84,0,0,1-.51-3.82,17.16,17.16,0,0,1,.24-4.44,3.58,3.58,0,0,1,1.27-1.87,2.19,2.19,0,0,1,2.11-.38,2.71,2.71,0,0,1,1.41,2.3c0,.62.11,1.52.11,1.54l.05,1.84Z"/><path class="cls-1" d="M104.77,143.31a6.55,6.55,0,0,0,7.4-5.45,5.88,5.88,0,0,0,0-.7v0c-.33-6.15-7.64-6.72-12.11-5.53.22,6,0,13.41.19,18.67a16.66,16.66,0,0,0,4.53-.11l.08,0v0C104.75,144.85,104.86,144.31,104.77,143.31Zm-.49-3.85a19.52,19.52,0,0,1-.24-4.07.1.1,0,0,1,.08,0,3.81,3.81,0,0,1,3.33.62,1.88,1.88,0,0,1,.49,2.68c-.87.87-2.44.7-3.58.79Z"/><path class="cls-1" d="M21.38,142.17v0h.14A4.08,4.08,0,0,0,25,139.78a5.8,5.8,0,0,0-4.8-8.67,27.11,27.11,0,0,0-7.13.38c.27,1.82.41,18.94.19,18.94.35-.08,3.5.22,4.72-.3a48.14,48.14,0,0,1-.14-6.61l.05.08a32.68,32.68,0,0,1,3.77,6.8h0c1.63.11,3.22-.05,4.5-.05h0C25.12,147.37,22.9,144.85,21.38,142.17ZM20,138.62a11.56,11.56,0,0,1-2.74,0h0c-.14-.81-.05-2.41-.14-3.33,1.27-.51,2.6-.65,3.39.08C21.46,136.15,21.36,138.32,20,138.62Z"/><path class="cls-1" d="M162.47,131.36s0,0,0,.05a18.45,18.45,0,0,0,.11,4.25c.43.14,2.41-.11,3.25.33l0,0c.43,10.11.11,14.12.19,14.44,1.3-.22,3.12,0,4.44-.19v-.05c-.22-11.84-.24-13.82-.14-14.34,0,0,0-.05,0-.08h.08a15.93,15.93,0,0,1,3.31,0,22,22,0,0,0,.11-4.2A100.82,100.82,0,0,0,162.47,131.36Z"/><path class="cls-1" d="M146.86,148.86a8.05,8.05,0,0,0,1-3.66l.08-.89c.14-1.87,0-3.63.14-5.56a22.2,22.2,0,0,0-.05-2.68,6.15,6.15,0,0,0-.43-1.68,4,4,0,0,0-1.11-1.65,7.91,7.91,0,0,0-7.83-.49,2.75,2.75,0,0,0-.62.49,7.1,7.1,0,0,0-1.44,4.63,80.94,80.94,0,0,0,.14,8.51,6.27,6.27,0,0,0,.65,3c.65,1.44,2.09,1.76,3.58,1.9a8.45,8.45,0,0,0,3.09-.27A4.89,4.89,0,0,0,146.86,148.86Zm-6.83-3a28.84,28.84,0,0,1-.51-3.82,17.16,17.16,0,0,1,.24-4.44,3.58,3.58,0,0,1,1.27-1.87,2.19,2.19,0,0,1,2.11-.38,2.71,2.71,0,0,1,1.41,2.3c0,.62.11,1.52.11,1.54l.05,1.84v1.3c0,.08,0,.68-.05,1.41-.14,1.57.14,1.57-.54,2.47A2.58,2.58,0,0,1,140,145.83Z"/><path class="cls-1" d="M149.65,131.6c.22,6,0,13.41.19,18.67a16.66,16.66,0,0,0,4.53-.11l.08,0v0c-.14-5.26,0-5.8-.11-6.8a6.55,6.55,0,0,0,7.4-5.45,5.84,5.84,0,0,0,0-.7v0C161.44,131,154.13,130.41,149.65,131.6Zm7.86,7.07c-.87.87-2.44.7-3.58.79h-.08a19.51,19.51,0,0,1-.24-4.07.1.1,0,0,1,.08,0A3.81,3.81,0,0,1,157,136,1.88,1.88,0,0,1,157.51,138.67Z"/><path class="cls-1" d="M179.71,135.8c2.38-.22,4.8.19,7.1-.33v0a26.06,26.06,0,0,0,0-3.85c0-.16-7-.05-11.22.16-.35,6.21,0,12.25,0,18.54,3.5.3,7.43,0,11.11.05a11.06,11.06,0,0,0,.22-3.55v-.05c-2.47.08-4.72-.14-7.1-.14l0,0a14.15,14.15,0,0,1,0-3.39c.38-.3,2.17,0,3.28-.3a28.81,28.81,0,0,0-.05-3.77v0c-1.11,0-2.25,0-3.33-.08l0,0a15.46,15.46,0,0,1,0-3.17l0,0Z"/><path class="cls-1" d="M199.85,137.59h0c.52-2.71-.6-4.47-2.33-5.37a8.26,8.26,0,0,0-6-.3,5.79,5.79,0,0,0-1.79,9.54,4,4,0,0,0,1.84.92c1.52.3,3.66.54,3.88,2.28.43,2.52-3.52,2.47-3.66.16a35.34,35.34,0,0,0-4.15,0V145c-.22,3.44,3.22,5.47,6.4,5.56a5.12,5.12,0,0,0,5.23-3.12,5.69,5.69,0,0,0-.43-5.83,6.62,6.62,0,0,0-4.69-2.85c-.76-.11-1.46-.3-1.76-1.17a1.67,1.67,0,0,1,0-.73c.3-2,3.82-1.3,3.39.68A9.79,9.79,0,0,0,199.85,137.59Z"/><path class="cls-1" d="M134,150.57a2.06,2.06,0,0,0,.89-.14v-.54c0-.73,0-1.44,0-2.17,0-1,0-2,0-3,0-1.54,0-3.12,0-4.63v-8.73a8.75,8.75,0,0,0-1.79-.16,11.37,11.37,0,0,0-2,.16c0,.89-.05,1.65-.05,2.41,0,1.3.08,2.49.08,3.93a4,4,0,0,1-.19,1.49c-.08,0-2.06-4-2.28-4.53-.65-1.52-.89-1.71-1.41-3a7.78,7.78,0,0,0-2.25-.27,5.67,5.67,0,0,0-1.22.11c-.19,2.3-.24,4.77-.24,7.26,0,3.39.08,6.34.08,9.78v1.9c.84,0,1.73.16,2.6.16a4.48,4.48,0,0,0,1.19-.14c0-.62,0-1.41,0-2.25,0-3,.08-6.88.19-6.88s.22.41.35.81l.27.81c.84,2.3,2.09,4.82,3.28,7.51C132.26,150.44,133.29,150.57,134,150.57Z"/><path class="cls-1" d="M115.72,145.88a7,7,0,0,1,1.68,0c.49,1.06.84,3.25,1.27,4.42h0a9.69,9.69,0,0,0,3.63.11v0l-2-9.49c-.43-1.82-1.9-8.18-2.22-9.59-2.38.22-2.82.05-3.33.14a178.43,178.43,0,0,0-4.15,18.92s0,0,.05,0c2.47,0,3.5.11,3.79,0l.08,0C115.15,149.22,115.24,147,115.72,145.88Zm1.82-3.2c-.68,0-1.38,0-2,0C116.29,137.13,116.46,133.33,117.54,142.68Z"/><path class="cls-1" d="M105.11,15.32a6.88,6.88,0,0,0-5.62-1.14l-.19.05a8.3,8.3,0,0,0-2.32.2A7.51,7.51,0,0,0,92,18.53a10.51,10.51,0,0,0-.65,7.18c1.15,4.66,4.83,7.89,8.65,7.89a6.71,6.71,0,0,0,1.61-.19,7.88,7.88,0,0,0,5.15-4.19.29.29,0,0,0,0-.07,8,8,0,0,0,1.24-1.9,10,10,0,0,0,.61-6.59A9.07,9.07,0,0,0,105.11,15.32ZM95.2,17.77a9.45,9.45,0,0,0-.5,6.32,10.35,10.35,0,0,0,3.42,5.59,6.94,6.94,0,0,0,3.27,1.51l-1.29.23c-3.28.55-6.48-1.57-7.93-5.05-.08-.26-.16-.53-.23-.8a9.94,9.94,0,0,1,.61-6.78,7.17,7.17,0,0,1,2.94-3.14,7,7,0,0,1,.67-.28A8.27,8.27,0,0,1,97.47,15l.21,0A6.66,6.66,0,0,0,95.2,17.77Zm6.3,15.07c-3.33.82-6.83-1.26-8.64-4.81a7.54,7.54,0,0,0,6.2,3.65,6.45,6.45,0,0,0,1.07-.09l1.83-.33h.33a5.67,5.67,0,0,0,1.36-.17,5.91,5.91,0,0,0,1.71-.72A7.27,7.27,0,0,1,101.51,32.84Zm6-5.84a6.16,6.16,0,0,1-4,3.54,5,5,0,0,1-1.2.15,5.91,5.91,0,0,1-3.21-1c2.68-.86,4-4.11,3.13-7.49a7.47,7.47,0,0,0-2.39-4,2.62,2.62,0,0,1-.16.72,1.31,1.31,0,0,1-1.84.92,1.49,1.49,0,0,1-1-2,2,2,0,0,1,.45-.7,8.11,8.11,0,0,0-1-.09,5.73,5.73,0,0,1,3.34-2.3,5.93,5.93,0,0,1,1.42-.17,6.53,6.53,0,0,1,3.73,1.22,8.49,8.49,0,0,1,3.32,5A9.46,9.46,0,0,1,107.53,27Z"/><path class="cls-1" d="M100.18,16.73a.43.43,0,0,0-.53.28.36.36,0,0,0,.25.48.32.32,0,0,0,.45-.23C100.42,17,100.39,16.81,100.18,16.73Z"/><path class="cls-1" d="M100.17,12.45a.45.45,0,0,0-.31.84.45.45,0,0,0,.31-.84Z"/><path class="cls-1" d="M72.71,20.46c.08.19.19.35.35.35l.13,0,.82-.37c.24.73.54,1.6,1,2.92,1.44,3.79,1.74,3.67,3.18,7.46s1.35,3.82,2.79,7.61a1,1,0,0,0,.84.75h0C84.48,39,85.75,39,87,38.92A.65.65,0,0,0,87,39c0,.54.51.66.83.7A10.63,10.63,0,0,1,88,41c0,.21,0,.54.23.56a5.36,5.36,0,0,0,.55,0c.32,0,.51,0,.83,0a5.35,5.35,0,0,1,.55,0c.21,0,.56.22.61.43,0,0-.16.08-.15.11,0,.2.28.48.49.48h0l.14,0,.13,10.77c0,.13.53.18,1.44.18l1.48,0a1,1,0,0,0-.44.75l.31,14.56c0,.8,1.48,1.46,3.52,1.69a1.08,1.08,0,0,0,0,.25l.38,22.92c-18.25.35-19.74,1.38-20.29,2.37h0l0,2.68h0c.49.82,1.65,1.35,13.1,1.35,2.59,0,5.7,0,9.45-.08,20.34-.31,21.92-1.38,22.49-2.41h0l0-2.68h0c-.48-.82-1.65-1.35-13.1-1.35-2.19,0-4.76,0-7.77.06l-.38-22.91a.94.94,0,0,0,0-.28c1.94-.3,3.3-1,3.29-1.76l-.31-14.56a.91.91,0,0,0-.35-.65c.84,0,1.55.05,2.07.05s1,0,1-.15l-.13-13.84a49.14,49.14,0,0,1,8.65-3.5c.21,0,.32-.39.31-.6-.08-2-.06-2-.15-4h0a14,14,0,0,1,1.46-.39,1.26,1.26,0,0,0,.77-.48.73.73,0,0,0,.16-.57.66.66,0,0,0-.07-.21.85.85,0,0,0-.22-.48l1.15-.42c4.27-1.57,4.21-1.73,8.48-3.3.4-.15.39-.42.3-.84-.84-4-.54-4.1-1.38-8.13s-.68-4.07-1.5-8.11c-.25-1.23-.44-2.09-.6-2.8l.76-.19a.6.6,0,0,0,.41-.64c-.15-.58-.09-.6-.25-1.18-.05-.19-.3-.28-.52-.28l-.17,0-.73.17c-.18-.78-.39-1.7-.7-3.14A.63.63,0,0,0,122.6,0l-.27,0c-4.88,1.06-4.89,1-9.76,2.09s-4.91.9-9.79,2S97.87,5,93,6.1L83.23,8.23l-.06,0h-.09a.24.24,0,0,0-.1.07c-.37.19-.77.57-1.07.76-4.62,2.82-4.75,2.62-9.37,5.45-.37.22-.29.74-.14,1.14.45,1.19.74,2,1,2.7l-1,.53c-.22.11-.43.45-.33.68C72.22,20.08,72.5,20,72.71,20.46Zm9.45,17.43c-.7-1.84-1-2.79-1.36-3.71s-.68-1.93-1.41-3.83-1.19-2.89-1.63-3.82-.85-1.79-1.55-3.64c-.52-1.37-.82-2.23-1.06-3,3-1.34,3.64-1.62,7.7-3.45.16-.07.38-.35.55-.4L85,15.56c.24.78.54,1.72,1,3,.86,2.5,1.28,3.77,1.69,5s.83,2.51,1.7,5,1.22,3.78,1.58,5c.29,1,.59,2.1,1.18,3.85l-.17,0c-2.51.14-3.79.18-5,.22S84.51,37.77,82.17,37.89ZM74.91,19.13l-.3-.93c1.15-.58,2-1,2.75-1.35,1.2-.58,2.45-1.17,4.85-2.43a1.56,1.56,0,0,0,.31-.23l.16-.13a9.54,9.54,0,0,0,1.08-.4c.19-.08.37-.16.66-.26l0,.14c.14.51.28,1,.46,1.63l-.6.18-1,.31a1.29,1.29,0,0,0-.46.3l-.15.12-4.83,2.16L75,19.51ZM123,4.65l.23,1L122,5.91l0-.2c.06-.22-.4-.51-.62-.56-2.86.56-2.81.81-5.65,1.4.07.19,0,.27,0,.51a.71.71,0,0,0,.06.38l-.47.12c-2.44.62-3.68.92-4.89,1.22s-2.45.6-4.89,1.22l-4.88,1.25-4.88,1.25L94,13c-.05-.34.62-.6.49-.94a2,2,0,0,0-.55-.28c-3.56.86-3.5,1.15-7.06,2a.53.53,0,0,0-.34.59l.15.51-.6.15h-.33a1.34,1.34,0,0,0-.33,0c-.18-.61-.32-1.12-.46-1.62l0-.13h.21a1.21,1.21,0,0,0,.29,0c2.46-.59,3.71-.86,4.93-1.13s2.48-.54,4.94-1.13l4.93-1.17,4.93-1.17c2.47-.59,3.71-.93,4.92-1.25s2.44-.66,4.9-1.25,3.71-.88,4.93-1.16l3-.7ZM120.27,95a5.35,5.35,0,0,1,1.5.35l0,1.8a8.18,8.18,0,0,1-2.89.77,172,172,0,0,1-18.52.92c-3.72.06-6.8.08-9.43.08a95.62,95.62,0,0,1-10.51-.36,5.35,5.35,0,0,1-1.5-.35l0-1.8a8.18,8.18,0,0,1,2.89-.77,153.69,153.69,0,0,1,16.33-.88,1.91,1.91,0,0,0,1.92,1.63h0a1.91,1.91,0,0,0,1.9-1.69c3,0,5.54-.06,7.76-.06A95.61,95.61,0,0,1,120.27,95ZM103.81,54.14l.3,14.53c0,.1-.34.4-1.24.7a11.59,11.59,0,0,1-3.31.49h-.22c-2.77,0-4.23-.74-4.36-1l-.3-14.53c0-.1.34-.4,1.24-.7l.36-.11,3.09-.07h1.07l1.87,0C103.23,53.65,103.73,54,103.81,54.14Zm.63-1.91c-1.11,0-2.49-.08-4-.08H99.34c-1.31,0-2.55.06-3.64.09s-2.1.06-2.82.06h-.22l-.1-8.7.53,0c1.12.08,2.66.18,4.58.18h.77a16.48,16.48,0,0,0,7.47-2.4l.1,10.86ZM102,41.88c.88-.38,1.81-.8,2.76-1.24A20.28,20.28,0,0,1,102,41.88Zm4.48-3a53.6,53.6,0,0,1-8.63,3.55l-.09,0a1.77,1.77,0,0,0-.66-.18h0a.88.88,0,0,0-.42.1,1.12,1.12,0,0,0-.82-.37l-.19,0h0a3.13,3.13,0,0,1-.41,0h0a5.73,5.73,0,0,0-.92-.08,5.64,5.64,0,0,0-.58,0l-.42,0a4.14,4.14,0,0,1-.66-.06l-.09,0a1,1,0,0,0-.61-.21,1.52,1.52,0,0,0-.35,0,1.65,1.65,0,0,0-1.28-.9,6.23,6.23,0,0,0-.63,0l-.48,0-.32,0a4.11,4.11,0,0,0-.1-.73c0-.07,0-.14,0-.21h.16c.39,0,.7,0,1,0l.76.12c.33.05.67.11,1.35.19h0a5.5,5.5,0,0,0,.64,0,1.9,1.9,0,0,0,.37,0,9,9,0,0,0,2-.6,7.38,7.38,0,0,1,1.66-.5,2.65,2.65,0,0,0,.65-.26l.26-.12c2.37-.46,5.7-1.92,9.23-3.47A61.28,61.28,0,0,1,115.14,32c0,.72,0,1.13.06,1.57s0,.9.06,1.73A55.94,55.94,0,0,0,106.48,38.92ZM114,12.74a8.92,8.92,0,0,0-.59,5.72,9.12,9.12,0,0,0,2.8,5.08A5.65,5.65,0,0,0,119.68,25l-.29.13a11.26,11.26,0,0,1-1.66.63,3.91,3.91,0,0,1-2.38-.08,6.6,6.6,0,0,1-1.38-.75,9.24,9.24,0,0,1-3.19-5.54c-.87-4.23.45-7.12,3.91-8.6a5.53,5.53,0,0,1,1.24-.33A5.84,5.84,0,0,0,114,12.74Zm2.28-2.49h-.06a6.46,6.46,0,0,0-1.59.39c-3.54,1.51-4.89,4.47-4,8.78a11.19,11.19,0,0,0,.94,2.75,10.17,10.17,0,0,1-1-2.87,9.41,9.41,0,0,1,.72-6.18,6,6,0,0,1,4.07-3.26,5.83,5.83,0,0,1,1.9,0A5,5,0,0,0,116.28,10.26Zm1.5,15.67a11.41,11.41,0,0,0,1.68-.64l.64-.28a4.92,4.92,0,0,0,.77-.09l.18,0A6.36,6.36,0,0,1,118.61,26a5.61,5.61,0,0,1-1.68.09A4.06,4.06,0,0,0,117.78,25.93Zm3-1.58a4.62,4.62,0,0,1-3.46-.72c1.72-1.07,2.55-3.47,2-6.2A8.1,8.1,0,0,0,118,14.31v0a1.58,1.58,0,0,1-2,1,1.69,1.69,0,0,1-1-2.13,1.62,1.62,0,0,1,.6-.76,4.88,4.88,0,0,0-.65-.18,4.68,4.68,0,0,1,2.94-2,4.57,4.57,0,0,1,.92-.09,5.61,5.61,0,0,1,3.43,1.26A7.88,7.88,0,0,1,125,16.09a8.06,8.06,0,0,1-.71,5.43A5.34,5.34,0,0,1,120.75,24.35Zm3.12-15.58c.39,1.93.56,2.93.72,3.91.05.33.11.66.17,1a8,8,0,0,0-2.18-2.7,6,6,0,0,0-4.37-1.34,6.45,6.45,0,0,0-3-.16A6.36,6.36,0,0,0,110.87,13a9.82,9.82,0,0,0-.76,6.46A9.57,9.57,0,0,0,113.33,25a6.58,6.58,0,0,0,4.14,1.54,6,6,0,0,0,1.21-.12,6.89,6.89,0,0,0,3.43-1.92,6.28,6.28,0,0,0,2.67-2.68,8.17,8.17,0,0,0,.93-3.18c.16.92.25,1.57.34,2.24.13,1,.26,2,.63,3.79-1.79.67-2.77,1.07-3.72,1.46s-2.08.86-4.2,1.63l-4.27,1.57-4.27,1.57c-2.09.77-3.13,1.06-4.24,1.37s-2.24.63-4.42,1.43-3.24,1.25-4.29,1.7-2.07.88-4.17,1.65l-.47.19h0c-.57-1.72-.87-2.77-1.16-3.79-.36-1.26-.72-2.55-1.59-5.06s-1.28-3.77-1.69-5-.83-2.51-1.7-5c-.43-1.24-.72-2.17-1-2.94l.21,0h.21a1,1,0,0,0,.22,0l.63-.16c.2.58.33.85.61,1.84.07.25.25.25.48.13,2.9-1.83,3-2.05,5.56-3.67l2.49-.64c4.88-1.24,4.88-1.26,9.76-2.5s4.9-1.19,9.78-2.43l.68-.17c2.66.43,2.74.09,5.45.54.22.12.85,0,.92-.25a16.49,16.49,0,0,0-.41-1.76L123.28,6C123.44,6.72,123.62,7.55,123.87,8.76Zm.94-4.92h.07a.38.38,0,0,1,.13,0,4.83,4.83,0,0,1,.1.5,5.69,5.69,0,0,0,.13.62.24.24,0,0,1-.11.15l-.76.19L124.08,4ZM93.25,7.31c2.43-.53,3.66-.77,4.86-1s2.47-.48,4.92-1,3.66-.76,4.86-1,2.48-.46,4.94-1l4.87-1,4.5-1c.24,1.12.42,1.9.58,2.57-3.1.73-3.75.85-7.92,1.85C109.93,6.93,110,7.07,105,8.25l-9.86,2.34c-4.93,1.18-4.95,1.09-9.87,2.27l-.19,0h-.33c-.25-.9-.55-1.91-1.07-3.48l4.65-1Zm-19.66,8c2-1.23,3.14-1.85,4.23-2.45s2.4-1.32,4.73-2.75a5.8,5.8,0,0,0,.54-.39l.18-.14c.5,1.51.79,2.5,1,3.38-.74.25-.82.38-1.76.67-.17.05-.37.31-.52.39-4,2.07-4.71,2.32-7.54,3.75C74.26,17.16,74,16.39,73.59,15.34Zm-1.06,3.93,1-.5.4,1.25-.77.35,0-.07a1.37,1.37,0,0,0-.48-.6.56.56,0,0,1-.21-.25A.36.36,0,0,1,72.53,19.27Z"/><path class="cls-1" d="M100,6.55h0l0-.07S100,6.54,100,6.55Z"/></svg>