<svg id="Layer_1" data-name="Layer 1" xmlns="http://www.w3.org/2000/svg" viewBox="0 0 1070.85 1258.71"><defs><style>.cls-1{fill:#fff;}</style></defs><title>Logo only</title><path class="cls-1" d="M81.38,1215.54a10.79,10.79,0,0,0-4.46-2.74,21.84,21.84,0,0,0-7-1H49.19v45.83h20.7a23.15,23.15,0,0,0,7.05-.91,10.69,10.69,0,0,0,4.51-2.66,8.61,8.61,0,0,0,2.16-4.12,21.51,21.51,0,0,0,.47-4.6v-21a20.44,20.44,0,0,0-.52-4.67A9.18,9.18,0,0,0,81.38,1215.54Zm-11.5,38.34H53v-38.25h16.9a18,18,0,0,1,5.59.71,7.29,7.29,0,0,1,3,1.75,5.71,5.71,0,0,1,1.38,2.59,15.3,15.3,0,0,1,.43,3.68v21a16.15,16.15,0,0,1-.4,3.66,5.13,5.13,0,0,1-1.32,2.47,7.19,7.19,0,0,1-3,1.68A19.23,19.23,0,0,1,69.89,1253.88Z"/><polygon class="cls-1" points="105.59 1215.64 117.88 1215.64 117.88 1253.88 105.59 1253.88 105.59 1257.68 133.81 1257.68 133.81 1253.88 121.68 1253.88 121.68 1215.64 133.81 1215.64 133.81 1211.84 105.59 1211.84 105.59 1215.64"/><path class="cls-1" d="M178.3,1234.32l-16.78-3.42a3.81,3.81,0,0,1-2.13-1c-.25-.25-.67-1-.67-2.83v-6.5a4.51,4.51,0,0,1,1.5-3.5,6.05,6.05,0,0,1,4.3-1.43h19.11v-3.79H164.52a9.86,9.86,0,0,0-6.88,2.41,8.18,8.18,0,0,0-2.71,6.3v6.5c0,2.63.58,4.45,1.78,5.57a8.1,8.1,0,0,0,4.1,2l16.72,3.41a5.11,5.11,0,0,1,2.75,1.43c.34.36.9,1.36.9,4.09v4.6a5.28,5.28,0,0,1-1.7,4.1,6.74,6.74,0,0,1-4.81,1.62H153.42v3.79h21.25a10.43,10.43,0,0,0,7.46-2.67,9.07,9.07,0,0,0,2.85-6.84v-4.6c0-3.19-.65-5.4-2-6.76A8.84,8.84,0,0,0,178.3,1234.32Z"/><path class="cls-1" d="M210,1214.63c-2,1.87-3,4.94-3,9.11v22.21c0,4.06,1,7.07,3,8.94s5.65,2.79,11.23,2.79H235.9v-3.79H221.15c-5.42,0-7.62-1-8.52-1.76-1.25-1.12-1.88-3.2-1.88-6.18v-22.21c0-3,.66-5.14,2-6.29.93-.82,3.15-1.8,8.44-1.8H235.9v-3.79H221.15C215.63,1211.84,212,1212.75,210,1214.63Z"/><path class="cls-1" d="M287.5,1214.24c-2.58-2.25-7.05-3.34-13.68-3.34s-11.08,1.1-13.61,3.36a11.37,11.37,0,0,0-3.83,8.85v23.4a11.37,11.37,0,0,0,3.83,8.85c2.53,2.26,7,3.36,13.61,3.36s11.1-1.09,13.68-3.34a11.26,11.26,0,0,0,3.92-8.86v-23.4A11.26,11.26,0,0,0,287.5,1214.24Zm-2.59,38.29c-1.88,1.58-5.61,2.38-11.09,2.38-6.82,0-9.74-1.29-11-2.37a7.52,7.52,0,0,1-2.65-6v-23.4a7.52,7.52,0,0,1,2.65-6c1.25-1.08,4.18-2.37,11-2.37,5.48,0,9.21.8,11.09,2.38a7.44,7.44,0,0,1,2.72,6v23.4A7.43,7.43,0,0,1,284.91,1252.53Z"/><path class="cls-1" d="M345.7,1230.48a22.15,22.15,0,0,1-.3,3.67,15.46,15.46,0,0,1-.86,3.13L339.29,1250a14.13,14.13,0,0,1-1.61,3.12c-.23.33-.69.76-2,.76h-7c-1.3,0-1.76-.43-2-.76a14.1,14.1,0,0,1-1.62-3.15l-5.23-12.68a15.31,15.31,0,0,1-.87-3.14,22,22,0,0,1-.3-3.67v-18.63h-3.79v18.63a29.3,29.3,0,0,0,.29,4.31,17.07,17.07,0,0,0,1.09,4l5.24,12.69a17.52,17.52,0,0,0,2.35,4.16,5.8,5.8,0,0,0,4.83,2.08h7a5.8,5.8,0,0,0,4.83-2.08,17.52,17.52,0,0,0,2.35-4.17l5.24-12.69a17.13,17.13,0,0,0,1.09-4,29.44,29.44,0,0,0,.29-4.31v-18.63H345.7Z"/><polygon class="cls-1" points="373.7 1257.68 403.43 1257.68 403.43 1253.88 377.49 1253.88 377.49 1236.34 397 1236.34 397 1232.55 377.49 1232.55 377.49 1215.64 403.43 1215.64 403.43 1211.84 373.7 1211.84 373.7 1257.68"/><path class="cls-1" d="M453.74,1235.88a6.66,6.66,0,0,0,.82-1.47,17.59,17.59,0,0,0,1.06-6.55v-5.47a11.06,11.06,0,0,0-2.58-7.44c-1.77-2.06-4.45-3.1-8-3.1H425.49v45.83h3.79v-18.4h20.95c2.62,0,4.52.52,5.65,1.55s1.65,2.55,1.65,4.72v12.13h3.79v-12.13a9.59,9.59,0,0,0-2.87-7.41A9.71,9.71,0,0,0,453.74,1235.88Zm-1.91-7.95a10.28,10.28,0,0,1-1.4,5.88c-.81,1.15-2.61,1.74-5.35,1.74H429.29v-19.92h15.79c2.37,0,4,.59,5.1,1.79a7.17,7.17,0,0,1,1.65,5Z"/><path class="cls-1" d="M533.37,1242.87,506.8,1213l-.06-.07a6,6,0,0,0-.86-.74,2.55,2.55,0,0,0-2.92.13,2.32,2.32,0,0,0-.92,1.92v43.46h3.79v-40l27.54,30.89v9.1h3.79v-45.83h-3.79Z"/><polygon class="cls-1" points="562.09 1257.68 591.82 1257.68 591.82 1253.88 565.88 1253.88 565.88 1236.34 585.39 1236.34 585.39 1232.55 565.88 1232.55 565.88 1215.64 591.82 1215.64 591.82 1211.84 562.09 1211.84 562.09 1257.68"/><path class="cls-1" d="M651.8,1236.66q0,1.74,0,4.1a20,20,0,0,1-.32,3.59l-2,9,0,.14a.52.52,0,0,1-.17.24.42.42,0,0,1-.17.11h-.4a3.28,3.28,0,0,1-.71-.09l-.06-.13L641.41,1239a11.46,11.46,0,0,0-2.15-3.43,4.34,4.34,0,0,0-3.09-1.17H632.6a4.33,4.33,0,0,0-3.1,1.17,11.48,11.48,0,0,0-2.16,3.45l-6.53,14.65,0,.08a3.27,3.27,0,0,1-.71.09h-.4a.42.42,0,0,1-.17-.12.51.51,0,0,1-.16-.23l-2-9.17a19.78,19.78,0,0,1-.32-3.6q0-2.37,0-4.1v-24.82h-3.79v24.9q0,1.76,0,4.15a22.3,22.3,0,0,0,.39,4.19l2,9a5,5,0,0,0,1.45,2.62,3.89,3.89,0,0,0,2.62,1h.56a6,6,0,0,0,2-.36,3.24,3.24,0,0,0,2-1.88l6.5-14.75a7.36,7.36,0,0,1,1.25-2.22.86.86,0,0,1,.63-.22h3.57a.88.88,0,0,1,.63.22,7.36,7.36,0,0,1,1.25,2.22l6.48,14.7a3.27,3.27,0,0,0,2,1.93,6,6,0,0,0,2,.36h.55a3.89,3.89,0,0,0,2.62-1,5.08,5.08,0,0,0,1.46-2.66l2-9a22.54,22.54,0,0,0,.39-4.17q0-2.39,0-4.15v-24.9H651.8Z"/><path class="cls-1" d="M735.56,1236.66q0,1.74,0,4.1a20,20,0,0,1-.32,3.59l-2,9,0,.14a.52.52,0,0,1-.17.24.42.42,0,0,1-.17.11h-.4a3.28,3.28,0,0,1-.71-.09l-.06-.13L725.18,1239a11.46,11.46,0,0,0-2.15-3.43,4.34,4.34,0,0,0-3.09-1.17h-3.57a4.33,4.33,0,0,0-3.1,1.17,11.48,11.48,0,0,0-2.16,3.45l-6.53,14.65,0,.08a3.27,3.27,0,0,1-.71.09h-.4a.42.42,0,0,1-.17-.12.51.51,0,0,1-.16-.23l-2-9.17a19.78,19.78,0,0,1-.32-3.6q0-2.37,0-4.1v-24.82h-3.79v24.9q0,1.76,0,4.15a22.3,22.3,0,0,0,.39,4.19l2,9a5,5,0,0,0,1.45,2.62,3.89,3.89,0,0,0,2.62,1H704a6,6,0,0,0,2-.36,3.24,3.24,0,0,0,2-1.88l6.5-14.75a7.36,7.36,0,0,1,1.25-2.22.86.86,0,0,1,.63-.22h3.57a.88.88,0,0,1,.63.22,7.36,7.36,0,0,1,1.25,2.22l6.48,14.7a3.27,3.27,0,0,0,2,1.93,6,6,0,0,0,2,.36h.55a3.89,3.89,0,0,0,2.62-1,5.08,5.08,0,0,0,1.46-2.66l2-9a22.54,22.54,0,0,0,.39-4.17q0-2.39,0-4.15v-24.9h-3.79Z"/><path class="cls-1" d="M793.81,1214.24c-2.58-2.25-7.05-3.34-13.68-3.34s-11.08,1.1-13.61,3.36a11.37,11.37,0,0,0-3.83,8.85v23.4a11.37,11.37,0,0,0,3.83,8.85c2.53,2.26,7,3.36,13.61,3.36s11.1-1.09,13.68-3.34a11.26,11.26,0,0,0,3.92-8.86v-23.4A11.26,11.26,0,0,0,793.81,1214.24Zm-2.59,38.29c-1.88,1.58-5.61,2.38-11.09,2.38-6.82,0-9.74-1.29-11-2.37a7.52,7.52,0,0,1-2.65-6v-23.4a7.52,7.52,0,0,1,2.65-6c1.25-1.08,4.18-2.37,11-2.37,5.48,0,9.21.8,11.09,2.38a7.44,7.44,0,0,1,2.72,6v23.4A7.43,7.43,0,0,1,791.22,1252.53Z"/><path class="cls-1" d="M850.27,1235.88a6.66,6.66,0,0,0,.82-1.47,17.59,17.59,0,0,0,1.06-6.55v-5.47a11.06,11.06,0,0,0-2.58-7.44c-1.77-2.06-4.45-3.1-8-3.1H822v45.83h3.79v-18.4h20.95c2.62,0,4.52.52,5.65,1.55s1.65,2.55,1.65,4.72v12.13h3.79v-12.13a9.59,9.59,0,0,0-2.87-7.41A9.71,9.71,0,0,0,850.27,1235.88Zm-1.91-7.95a10.28,10.28,0,0,1-1.4,5.88c-.81,1.15-2.61,1.74-5.35,1.74H825.82v-19.92h15.79c2.37,0,4,.59,5.1,1.79a7.17,7.17,0,0,1,1.65,5Z"/><polygon class="cls-1" points="909.44 1253.88 884.83 1253.88 884.83 1211.84 881.04 1211.84 881.04 1257.68 913.23 1257.68 913.23 1238.26 909.44 1238.26 909.44 1253.88"/><path class="cls-1" d="M968.36,1215.54a10.79,10.79,0,0,0-4.46-2.74,21.84,21.84,0,0,0-7-1h-20.7v45.83h20.7a23.15,23.15,0,0,0,7.05-.91,10.69,10.69,0,0,0,4.51-2.66,8.61,8.61,0,0,0,2.16-4.12,21.51,21.51,0,0,0,.47-4.6v-21a20.44,20.44,0,0,0-.52-4.67A9.18,9.18,0,0,0,968.36,1215.54Zm-11.5,38.34H940v-38.25h16.9a18,18,0,0,1,5.59.71,7.29,7.29,0,0,1,3,1.75,5.71,5.71,0,0,1,1.38,2.59,15.3,15.3,0,0,1,.43,3.68v21a16.15,16.15,0,0,1-.4,3.66,5.13,5.13,0,0,1-1.32,2.47,7.19,7.19,0,0,1-3,1.68A19.23,19.23,0,0,1,956.86,1253.88Z"/><path class="cls-1" d="M1017.29,1234.32l-16.78-3.42a3.81,3.81,0,0,1-2.13-1c-.25-.25-.67-1-.67-2.83v-6.5a4.51,4.51,0,0,1,1.5-3.5,6.05,6.05,0,0,1,4.3-1.43h19.11v-3.79H1003.5a9.86,9.86,0,0,0-6.88,2.41,8.18,8.18,0,0,0-2.71,6.3v6.5c0,2.63.58,4.45,1.78,5.57a8.1,8.1,0,0,0,4.1,2l16.72,3.41a5.11,5.11,0,0,1,2.75,1.43c.34.36.9,1.36.9,4.09v4.6a5.28,5.28,0,0,1-1.7,4.1,6.74,6.74,0,0,1-4.81,1.62H992.41v3.79h21.25a10.43,10.43,0,0,0,7.46-2.67,9.07,9.07,0,0,0,2.85-6.84v-4.6c0-3.19-.65-5.4-2-6.76A8.84,8.84,0,0,0,1017.29,1234.32Z"/><path class="cls-1" d="M277.59,1121.89c.44-18.72-1-37.44-.58-55.57l-21.18.29v1c-.73,23.07-.29,46.14.14,67.76-.44,5.66-3,11.32-8.85,10.16-7-.44-8.27-10.59-8.71-16.54v-.87c-7-1.16-17.27-1.45-22.49-.29-.72,14.8,1.89,37.15,17.7,41.79,8.71,1.89,19,1.74,27.14-2.32C278.75,1160.63,276.87,1137.71,277.59,1121.89Z"/><path class="cls-1" d="M432.86,1067.48c0,.15.15.15.15.29-.73,9.14-.15,21.33.58,22.78,2.32.73,12.91-.58,17.41,1.74l.15.15c2.32,54.12.58,75.6,1,77.34,7-1.16,16.69.14,23.8-1v-.29c-1.16-63.41-1.31-74-.73-76.76,0-.15.14-.29.14-.44h.44c9.14-.44,14.07-.73,17.7,0a117.71,117.71,0,0,0,.58-22.49C474.21,1066.61,452.59,1067.33,432.86,1067.48Z"/><path class="cls-1" d="M348,1169.2c1.6-5.8,1.6-12.77,1.16-19v-.29c-13.21.44-25.25-.73-38-.73L311,1149c-.44-4.64-1-12.48,0-18.14,2-1.6,11.61,0,17.56-1.6-.14-7.11.73-13.64-.29-20.17V1109c-5.95-.15-12,0-17.85-.44l-.14-.15c-1.31-5.22,0-11.32-.15-17l.15-.15h.44c12.77-1.16,25.68,1,38-1.74v-.15c0-6.82,1-13.78,0-20.6,0-.87-37.58-.29-60.07.87-1.89,33.23-.15,65.59-.15,99.25C307.19,1170.5,328.23,1169,348,1169.2Z"/><path class="cls-1" d="M380.76,1091c1.6-1.6,4.79-1.89,7.26-2.32,11.32-.44,9,11.61,10.16,19.3,7.4,1.31,14.07,2.18,21.19.58,9.29-26.84-18.28-51.22-44.84-42.52a21.46,21.46,0,0,0-7.4,3.34,29.89,29.89,0,0,0-8,12.62,20,20,0,0,0-1.6,9.72c-.44,31.34-.29,46.29.44,60.22,1.6,16.25,19.15,21.19,32.94,19.3,21.19-.44,34.82-22.2,28.3-42.23-5.51-1.6-13.93-.14-19.44-.87-1,4.79.29,9.87-1.89,14.37-1.89,3.92-6.1,5.51-10.3,5.08-5.66-1.6-7.69-7.69-8.27-13.35-1.16-13.2,0-40.34.58-41.35A5.51,5.51,0,0,1,380.76,1091Z"/><path class="cls-1" d="M64.72,1102.3a31.49,31.49,0,0,0,.15-3.77v-.14c-1.74-32.94-40.92-36-64.86-29.6,1.16,32.21-.14,71.83,1,100,6.53.73,18.86.87,24.23-.58.15,0,.29-.14.44-.14v-.15c-.73-28.15-.15-31.05-.58-36.42C43.53,1134.51,62.39,1120.73,64.72,1102.3Zm-41.79,8.56h-.44c-1.89-5.8-.87-14.8-1.31-21.77a.53.53,0,0,1,.44-.15c6.24-1.6,13.06-.58,17.85,3.34,5.08,3,5.8,10,2.61,14.37C37.44,1111.3,29,1110.43,22.93,1110.86Z"/><path class="cls-1" d="M209.83,1136.84c.73-10,.14-19.44.73-29.75a118.67,118.67,0,0,0-.29-14.37,32.87,32.87,0,0,0-2.32-9,21.28,21.28,0,0,0-5.95-8.85c-11.17-8.56-29.17-8.85-41.94-2.61a14.76,14.76,0,0,0-3.34,2.61c-6,6.82-7.55,16.11-7.69,24.81-1,15.24.14,30.47.73,45.56.14,5.66.73,11.32,3.48,16.11,3.48,7.69,11.17,9.43,19.15,10.16a45.26,45.26,0,0,0,16.54-1.45c5.95-1.6,11.61-4.21,14.95-8.85,3.48-5.66,5.08-12.77,5.51-19.59Zm-17.41-10.74c0,.44-.15,3.63-.29,7.55-.73,8.42.73,8.42-2.9,13.2-5.95,6.67-18.14,5.8-21.91-1.89-1.89-6.38-1.74-13.64-2.76-20.46-.44-8.13-.29-16.4,1.31-23.8a19.18,19.18,0,0,1,6.82-10c3-2.32,7.4-3.63,11.32-2,4.5,2.18,7.11,7,7.55,12.33.14,3.34.58,8.13.58,8.27l.29,9.87Z"/><path class="cls-1" d="M561,1131.47c18.43,3,37.29-10.74,39.61-29.17a31.49,31.49,0,0,0,.15-3.77v-.14c-1.74-32.94-40.92-36-64.86-29.6,1.16,32.21-.14,71.83,1,100,6.53.73,18.86.87,24.23-.58.14,0,.29-.14.44-.14v-.15C560.84,1139.74,561.43,1136.84,561,1131.47Zm-2.61-20.6c-1.89-5.8-.87-14.8-1.31-21.77a.53.53,0,0,1,.44-.15c6.24-1.6,13.06-.58,17.85,3.34,5.08,3,5.8,10,2.61,14.37-4.64,4.64-13.06,3.77-19.15,4.21Z"/><path class="cls-1" d="M114.49,1125.37v-.15h.73c9.29-.58,15.24-5.66,18.86-12.62,12-20.17-2.76-45.27-25.68-46.43-14.08-1.6-27.28.44-38.16,2,1.45,9.72,2.18,101.43,1,101.43,1.89-.44,18.72,1.16,25.25-1.6-.44-7.4-1.89-26.7-.73-35.41l.29.44c8.27,10.16,16.4,27.57,20.17,36.42h.14c8.71.58,17.27-.29,24.09-.29h-.15C134.51,1153.23,122.61,1139.74,114.49,1125.37Zm-7.55-19a61.89,61.89,0,0,1-14.66,0h-.15c-.72-4.35-.29-12.91-.72-17.85,6.82-2.76,13.93-3.48,18.14.44C114.92,1093.16,114.34,1104.77,106.94,1106.36Z"/><path class="cls-1" d="M869.93,1067.48c0,.15.15.15.15.29-.73,9.14-.15,21.33.58,22.78,2.32.73,12.91-.58,17.41,1.74l.15.15c2.32,54.12.58,75.6,1,77.34,7-1.16,16.69.14,23.8-1v-.29c-1.16-63.41-1.31-74-.73-76.76,0-.15.14-.29.14-.44h.44c9.14-.44,14.08-.73,17.7,0a117.67,117.67,0,0,0,.58-22.49C911.28,1066.61,889.66,1067.33,869.93,1067.48Z"/><path class="cls-1" d="M786.34,1161.21c3.48-5.66,5.08-12.77,5.51-19.59l.44-4.79c.73-10,.15-19.44.73-29.75a118.87,118.87,0,0,0-.29-14.37,32.9,32.9,0,0,0-2.32-9,21.28,21.28,0,0,0-5.95-8.85c-11.17-8.56-29.17-8.85-41.94-2.61a14.75,14.75,0,0,0-3.34,2.61c-6,6.82-7.55,16.11-7.69,24.81-1,15.24.14,30.47.72,45.56.15,5.66.73,11.32,3.48,16.11,3.48,7.69,11.17,9.43,19.15,10.16a45.27,45.27,0,0,0,16.54-1.45C777.35,1168.47,783,1165.86,786.34,1161.21ZM749.78,1145c-1.89-6.38-1.74-13.64-2.76-20.46-.44-8.13-.29-16.4,1.31-23.8a19.19,19.19,0,0,1,6.82-10c3-2.32,7.4-3.63,11.32-2,4.5,2.18,7.11,7,7.54,12.33.14,3.34.58,8.13.58,8.27l.29,9.87v7c0,.44-.15,3.63-.29,7.55-.73,8.42.73,8.42-2.9,13.2C765.74,1153.52,753.55,1152.65,749.78,1145Z"/><path class="cls-1" d="M801.29,1068.78c1.16,32.21-.14,71.83,1,100,6.53.73,18.86.87,24.23-.58.15,0,.29-.14.44-.14v-.15c-.73-28.15-.14-31.05-.58-36.42,18.43,3,37.29-10.74,39.61-29.17a31.28,31.28,0,0,0,.15-3.77v-.14C864.41,1065.45,825.23,1062.4,801.29,1068.78Zm42.08,37.87c-4.64,4.64-13.06,3.77-19.15,4.21h-.43c-1.89-5.8-.87-14.8-1.31-21.77a.53.53,0,0,1,.44-.15c6.24-1.6,13.06-.58,17.85,3.34C845.84,1095.34,846.56,1102.3,843.37,1106.65Z"/><path class="cls-1" d="M962.22,1091.27c12.77-1.16,25.68,1,38-1.74v-.15c0-6.82,1-13.78,0-20.6,0-.87-37.58-.29-60.07.87-1.89,33.23-.15,65.59-.15,99.25,18.72,1.6,39.76.14,59.49.29,1.6-5.8,1.6-12.77,1.16-19v-.29c-13.2.44-25.25-.73-38-.73l-.15-.14c-.44-4.64-1-12.48,0-18.14,2-1.6,11.61,0,17.56-1.6-.14-7.11.73-13.64-.29-20.17V1109c-5.95-.15-12,0-17.85-.44l-.14-.15c-1.31-5.22,0-11.32-.15-17l.15-.15Z"/><path class="cls-1" d="M1070,1100.85h.15c2.76-14.51-3.19-23.94-12.48-28.73-9.29-4.21-22.78-5.51-32.21-1.6-18.57,7.69-27.42,34.1-9.58,51.08a21.2,21.2,0,0,0,9.87,4.93c8.13,1.6,19.59,2.9,20.75,12.19,2.32,13.49-18.86,13.2-19.59.87-6.53.15-15.38-.87-22.2.15v.87c-1.16,18.43,17.27,29.31,34.25,29.75,11.9.44,23.36-4.79,28-16.69,4.64-10,4.5-22.49-2.32-31.2a35.45,35.45,0,0,0-25.1-15.24c-4.06-.58-7.84-1.6-9.43-6.24a8.92,8.92,0,0,1,0-3.92c1.6-10.88,20.46-7,18.14,3.63C1055.08,1102.59,1063.21,1102,1070,1100.85Z"/><path class="cls-1" d="M717.56,1170.36a11.05,11.05,0,0,0,4.79-.73v-2.9c0-3.92-.14-7.69-.14-11.61,0-5.37.14-10.45.14-16.11,0-8.27,0-16.69-.14-24.81v-46.72a46.86,46.86,0,0,0-9.58-.87,60.87,60.87,0,0,0-10.45.87c-.15,4.79-.29,8.85-.29,12.91,0,7,.44,13.35.44,21,0,3.34-.44,7.55-1,8-.44,0-11-21.48-12.19-24.23-3.48-8.13-4.79-9.14-7.54-16.25,0-.87-9.58-1.45-12-1.45a30.37,30.37,0,0,0-6.53.58c-1,12.33-1.31,25.54-1.31,38.89,0,18.14.44,34,.44,52.38v10.16c4.5,0,9.29.87,13.93.87a24,24,0,0,0,6.38-.73c-.15-3.34-.15-7.55-.15-12,0-16.25.44-36.86,1-36.86s1.16,2.18,1.89,4.35l1.45,4.35c4.5,12.33,11.17,25.83,17.56,40.19C708.13,1169.63,713.64,1170.36,717.56,1170.36Z"/><path class="cls-1" d="M619.61,1145.25c4.35,0,4.06-.58,9,.14,2.61,5.66,4.5,17.41,6.82,23.65h.14c6.24,1.31,13.64,1.74,19.44.58v-.15l-10.88-50.79c-2.32-9.72-10.16-43.82-11.9-51.37-12.77,1.16-15.09.29-17.85.73-13.93,46.43-21,97.36-22.2,101.28.15.14.15.14.29.14,13.2-.14,18.72.58,20.31.15.14,0,.29-.15.44-.15C616.57,1163.1,617,1151.35,619.61,1145.25Zm9.72-17.12c-3.63,0-7.4.15-10.74,0C622.66,1098.38,623.53,1078.07,629.34,1128.13Z"/><path class="cls-1" d="M308.87,114.84A396.44,396.44,0,0,1,491.38,41.79q12.29-1.59,24.66-2.44t24.75-.87a405.35,405.35,0,0,1,49.41,2.7A390.15,390.15,0,0,1,686,64.95a395.49,395.49,0,0,1,86.82,46.72c6.7,4.81,13.27,9.72,19.68,15q4.43,3.54,8.78,7.12A32.25,32.25,0,0,0,795,144.39l-53-15.3-42.3-12.23-21.35-5.42-10.68-2.71-10.7-2.63,10.46,3.47,10.48,3.4,21,6.79L741.13,132l53,15.29a32.34,32.34,0,0,0,2.71,22.93l-30,17.31-118,68.15-59,34.06L560.6,307.36,546,316.19l-14.54,8.9,15-8.14,14.94-8.21,29.86-16.42,59-34.08,118-68.15,30-17.32a32.35,32.35,0,0,0,18,13.4L804,232.06,793.69,270.8l-4.48,19.55L787,300.13l-2.16,9.8,3-9.57,2.93-9.59,5.86-19.19,10.33-38.74,12.26-45.94a32.26,32.26,0,0,0,27.32-7.27l2.65,3.37,3.91,4.87c1.32,1.62,2.58,3.25,3.83,4.88s2.54,3.24,3.74,4.91c4.95,6.58,9.63,13.36,14.16,20.24a396.78,396.78,0,0,1,58.36,283.87c-1.36,8.14-3.05,16.23-4.94,24.26s-4.07,16-6.47,23.91a401.62,401.62,0,0,1-225.92,250.8q-11.51,4.91-23.3,9.15t-23.86,7.66q12.16-3.06,24.15-6.81t23.7-8.34A398.75,398.75,0,0,0,930.64,552.72c2.57-8.06,4.93-16.19,7-24.4s3.9-16.47,5.41-24.8,2.83-16.7,3.79-25.11,1.75-16.85,2.19-25.3a408.56,408.56,0,0,0-7-101.17,397.61,397.61,0,0,0-32.27-96.23,406.52,406.52,0,0,0-25-44.3c-4.65-7.09-9.45-14.09-14.53-20.89-1.24-1.72-2.56-3.38-3.84-5.07s-2.58-3.37-3.9-5l-3.92-4.92c-1.29-1.65-2.53-3.27-3.87-4.94l-.53-.66.09-.18c.14-.28.28-.56.41-.84l.29-.65c.13-.28.25-.57.37-.85l.26-.67q.17-.43.32-.87l.23-.68v0l54.25,15.66L952.66,193c14.24,3.59,28.45,7.29,42.72,10.77-13.93-4.66-27.93-9.1-41.89-13.66L911.19,178,856.9,162.28,857,162c.07-.32.13-.65.19-1s.09-.45.12-.68.1-.69.14-1,.06-.43.08-.65c0-.39.07-.78.1-1.18,0-.18,0-.35,0-.53,0-.57,0-1.15,0-1.73a32.14,32.14,0,0,0-3.53-14.67l32.19-18.58,59-34.07c19.42-11.8,38.9-23.49,58.27-35.37-20,10.83-39.84,21.85-59.77,32.77l-59,34.07-32.18,18.58a32.37,32.37,0,0,0-16.86-13.29l12.48-46.76,10.34-38.74c3-13,6-26.06,8.89-39.13-4,12.76-7.85,25.57-11.79,38.35L845.38,77.1l-12.46,46.7a32.35,32.35,0,0,0-7.53-.89c-.58,0-1.15,0-1.72,0l-.5,0-1.19.1-.63.08-1,.14-.67.12-1,.18-.69.16-.92.23-.69.2-.89.27-.68.23-.86.31-.67.27-.84.35-.66.3-.81.39-.1,0q-5.49-4.53-11-8.92c-6.53-5.32-13.37-10.41-20.27-15.33A399.18,399.18,0,0,0,267.3,143.26a390.3,390.3,0,0,0-33.55,37.58A390.5,390.5,0,0,0,182.42,267a406.93,406.93,0,0,1,53.91-84A401.4,401.4,0,0,1,308.87,114.84Zm494.69,20.84c1.08.9,2.15,1.79,3.22,2.69,4.4,4,9.44,8.69,14.61,13.65l-23.56-6.8A29.33,29.33,0,0,1,803.57,135.68Zm-7.47,19.52a29.24,29.24,0,0,1,.88-7.1l25.39,7.33-23,13.26A29.1,29.1,0,0,1,796.09,155.2Zm4.82,16.07,22.86-13.2-6.73,25.21A29.41,29.41,0,0,1,800.91,171.27ZM820,184,827,157.51c2.39,2.37,4.75,4.78,7.06,7.21,3.61,4.06,7.11,8.26,10.54,12.54A29.17,29.17,0,0,1,820,184Z"/><path class="cls-1" d="M275.3,446.21c-9.24-6.42-19.93-8.58-30.09-6.08-.35.09-.69.19-1,.29a44.44,44.44,0,0,0-12.42,1.1c-11.46,2.82-20.85,10.58-26.45,21.85s-6.81,24.89-3.47,38.44C208,526.75,227.68,544,248.14,544a35.92,35.92,0,0,0,8.6-1,42.21,42.21,0,0,0,27.56-22.43,1.53,1.53,0,0,0,.12-.37A43.1,43.1,0,0,0,291.05,510a53.79,53.79,0,0,0,3.25-35.28C291.37,462.82,284.62,452.69,275.3,446.21Zm-53,13.11c-4.68,9.79-5.63,21.8-2.67,33.82s9.51,22.79,18.33,29.92a37.14,37.14,0,0,0,17.51,8.11c-1.69.31-3.72.68-6.92,1.23-17.58,3-34.7-8.38-42.44-27-.45-1.4-.87-2.83-1.23-4.29-3.16-12.84-2-25.74,3.24-36.32a38.39,38.39,0,0,1,15.72-16.81,37.25,37.25,0,0,1,3.6-1.5,44.26,44.26,0,0,1,7-2l1.13-.24A35.66,35.66,0,0,0,222.25,459.31ZM256,540c-17.83,4.39-36.56-6.72-46.28-25.77,7.88,12.09,20.16,19.54,33.22,19.54a34.53,34.53,0,0,0,5.72-.48c5.15-.9,7.31-1.3,9.81-1.78.59,0,1.18.06,1.77.06a30.35,30.35,0,0,0,7.27-.88,31.63,31.63,0,0,0,9.15-3.88A38.93,38.93,0,0,1,256,540Zm32.26-31.29c-4.72,10-12.35,16.72-21.49,19a26.83,26.83,0,0,1-6.43.78A31.65,31.65,0,0,1,243.15,523c14.35-4.59,21.22-22,16.77-40.09-2.23-9-6.87-16.53-12.81-21.43a14.05,14.05,0,0,1-.86,3.83c-1.77,4.73-5.11,6.71-9.84,4.94s-7.16-5.9-5.39-10.63a10.53,10.53,0,0,1,2.42-3.75,43.45,43.45,0,0,0-5.36-.46,30.68,30.68,0,0,1,17.87-12.3,31.77,31.77,0,0,1,7.61-.92,35,35,0,0,1,20,6.54c8.7,6.05,15,15.54,17.77,26.73A50.65,50.65,0,0,1,288.26,508.69Z"/><path class="cls-1" d="M242.94,453.71a2.29,2.29,0,0,0-2.84,1.48,2,2,0,0,0,1.32,2.6,1.71,1.71,0,0,0,2.4-1.21C244.25,455.43,244.09,454.14,242.94,453.71Z"/><path class="cls-1" d="M345,430.8a2.4,2.4,0,0,0-1.68,4.51A2.41,2.41,0,0,0,345,430.8Z"/><path class="cls-1" d="M105.78,473.71c.44,1,1,1.9,1.9,1.9a1.69,1.69,0,0,0,.7-.16l4.41-2c1.28,3.92,2.89,8.57,5.57,15.61,7.73,20.27,9.31,19.66,17,39.93s7.22,20.46,14.95,40.73c.79,2.08,2.33,4,4.51,4h.2c13.75-.75,20.55-1,27.43-1.18a3.49,3.49,0,0,0-.06.61c0,2.92,2.76,3.52,4.47,3.75.22,2.76.86,3.27.91,6.91,0,1.15.09,2.88,1.23,3A28.71,28.71,0,0,0,192,587c1.72,0,2.73-.21,4.45-.21a28.66,28.66,0,0,1,3,.17c1.14.12,3,1.2,3.26,2.32,0,.21-.85.4-.8.61.23,1.07,1.5,2.57,2.6,2.57h.17a3.08,3.08,0,0,0,.76-.2l.7,57.69c0,.71,2.86.95,7.71.95,2.24,0,4.92-.05,7.94-.13-1.52,1.24-2.36,2.6-2.34,4L221,732.72c.06,4.28,7.92,7.81,18.85,9a5.78,5.78,0,0,0-.12,1.36l2,122.71c-97.71,1.88-105.72,7.37-108.63,12.68H133l.22,14.36h.15c2.6,4.42,8.83,7.25,70.13,7.25,13.85,0,30.51-.14,50.58-.45C363,898,371.46,892.28,374.48,886.77h.15l-.22-14.36h-.15c-2.6-4.42-8.83-7.25-70.12-7.25-11.73,0-25.49.1-41.61.32l-2-122.69a5,5,0,0,0-.21-1.48c10.38-1.63,17.66-5.29,17.59-9.45l-1.64-77.94a4.87,4.87,0,0,0-1.9-3.48c4.52.15,8.31.28,11.1.28,3.39,0,5.31-.19,5.31-.78l-.7-74.12c17.43-8.22,34.69-16.27,46.32-18.76,1.12-.24,1.71-2.09,1.66-3.24-.45-10.62-.31-10.62-.8-21.24v0a74.89,74.89,0,0,1,7.82-2.1,6.74,6.74,0,0,0,4.15-2.55,3.93,3.93,0,0,0,.85-3.06,3.52,3.52,0,0,0-.38-1.11,4.57,4.57,0,0,0-1.19-2.56l6.13-2.25c22.85-8.41,22.54-9.26,45.39-17.67,2.16-.79,2.08-2.26,1.61-4.51-4.52-21.6-2.87-21.95-7.39-43.55s-3.65-21.78-8.06-43.41c-1.35-6.61-2.34-11.18-3.21-15l4.09-1a3.2,3.2,0,0,0,2.18-3.45c-.81-3.12-.51-3.2-1.32-6.32-.27-1-1.59-1.52-2.79-1.52a4,4,0,0,0-.91.1l-3.92.94c-1-4.16-2.11-9.1-3.73-16.83-.37-1.76-1.93-2.5-3.67-2.5a6.84,6.84,0,0,0-1.45.16c-26.12,5.69-26.16,5.52-52.28,11.22s-26.31,4.84-52.43,10.54-26.26,5.07-52.38,10.76l-52.25,11.38c-.1,0-.21.07-.32.11a1.29,1.29,0,0,0-1,.43c-2,1-4.12,3.08-5.71,4-24.76,15.12-25.41,14-50.17,29.17-2,1.2-1.58,4-.76,6.11,2.42,6.36,4,10.77,5.19,14.45l-5.48,2.84c-1.16.6-2.3,2.43-1.79,3.63C103.15,471.67,104.64,471,105.78,473.71ZM156.4,567c-3.75-9.84-5.55-14.94-7.29-19.88s-3.64-10.31-7.53-20.52c-4-10.38-6.38-15.49-8.72-20.44s-4.55-9.6-8.32-19.49c-2.8-7.35-4.38-12-5.68-16,16-7.18,19.47-8.65,41.24-18.46.87-.39,2-1.86,3-2.12,4.64-1.36,5.42-1.65,8.74-2.65,1.27,4.17,2.88,9.19,5.18,15.86,4.61,13.38,6.87,20.2,9.07,26.8s4.46,13.44,9.08,26.83,6.56,20.26,8.45,27c1.57,5.54,3.18,11.25,6.29,20.59a5.9,5.9,0,0,1-.89.26c-13.46.73-20.32,1-27,1.16C175.57,566.16,168.93,566.37,156.4,567ZM117.54,466.58c-.5-1.6-1-3.21-1.59-5,6.15-3.11,10.49-5.19,14.73-7.22,6.45-3.09,13.11-6.29,26-13a8.33,8.33,0,0,0,1.64-1.24,7.77,7.77,0,0,1,.85-.7,51.08,51.08,0,0,0,5.76-2.15c1-.44,2-.86,3.55-1.4l.21.77c.75,2.72,1.51,5.48,2.47,8.74l-3.19,1c-1.36.42-2.76.86-5.54,1.67a6.89,6.89,0,0,0-2.47,1.6,8.14,8.14,0,0,1-.79.64c-12.9,5.81-19.48,8.74-25.83,11.57-4.32,1.92-8.73,3.89-15.16,6.77ZM374.8,389.06c.41,1.7.81,3.38,1.23,5.19l-6.25,1.55c-.06-.34-.12-.69-.18-1.07.33-1.16-2.12-2.71-3.29-3-15.29,3-15.06,4.31-30.25,7.48.39,1-.2,1.43.24,2.71a3.8,3.8,0,0,0,.32,2l-2.5.64c-13.06,3.32-19.72,4.94-26.16,6.51s-13.12,3.19-26.2,6.52-19.72,5-26.14,6.7-13.06,3.38-26.13,6.7l-9.92,2.53c-.28-1.83,3.32-3.2,2.64-5a10.89,10.89,0,0,0-2.93-1.52c-19.09,4.61-18.72,6.15-37.8,10.76a2.86,2.86,0,0,0-1.83,3.14c.3,1,.56,1.92.8,2.71l-3.22.82a3.55,3.55,0,0,1-.64,0h-1.11a7.19,7.19,0,0,0-1.78.18c-1-3.24-1.72-6-2.46-8.7l-.19-.69h1.15a6.5,6.5,0,0,0,1.53-.15c13.17-3.15,19.89-4.63,26.39-6.05s13.26-2.92,26.47-6.07,19.89-4.73,26.38-6.26,13.2-3.11,26.39-6.26,19.89-5,26.34-6.7,13.06-3.52,26.22-6.67,19.89-4.7,26.38-6.19c4.53-1,9.18-2.11,16-3.73Zm-14.37,484c3.92.52,6.77,1.18,8,1.86l.15,9.66c-2.35,1.89-9.52,3.27-15.48,4.13-17.87,2.58-50.3,4.19-99.14,4.93-19.9.3-36.42.45-50.49.45-28.5,0-46.38-.61-56.29-1.92-3.92-.52-6.77-1.18-8-1.86l-.15-9.66c2.35-1.89,9.52-3.27,15.48-4.13,16.4-2.37,45.07-3.92,87.42-4.73a10.2,10.2,0,0,0,10.29,8.73h.17a10.21,10.21,0,0,0,10.19-9.05c16-.22,29.66-.32,41.57-.32C332.64,871.15,350.52,871.76,360.43,873.07ZM272.26,654l1.63,77.79c-.22.51-1.81,2.16-6.63,3.74a62.05,62.05,0,0,1-17.72,2.61h-1.2c-14.86,0-22.65-4-23.33-5.62l-1.63-77.79c.22-.51,1.81-2.16,6.63-3.74.62-.2,1.27-.4,1.93-.58,5.08-.15,10.66-.3,16.52-.39,1.94,0,3.85,0,5.72,0,3.49,0,6.85,0,10,.11C269.18,651.43,271.87,653.12,272.26,654Zm3.35-10.21c-5.93-.19-13.31-.43-21.41-.43-2,0-3.94,0-5.82,0-7,.11-13.66.3-19.5.47-6,.18-11.25.33-15.09.33h-1.15l-.56-46.57,2.81.19c6,.41,14.26,1,24.5,1,1.38,0,2.77,0,4.14,0,15.57-.24,30.47-7.5,40-12.87l.55,58.13C281.78,644,278.88,643.95,275.61,643.84Zm-13-55.45c4.73-2,9.7-4.27,14.77-6.62A108.58,108.58,0,0,1,262.58,588.4Zm24-15.83c-17.07,8.05-34.71,16.37-46.22,19l-.48-.2a9.47,9.47,0,0,0-3.55-.95h-.08A4.69,4.69,0,0,0,234,591a6,6,0,0,0-4.4-2,5.86,5.86,0,0,0-1,.08h-.09a16.76,16.76,0,0,1-2.19-.26l-.2,0a30.68,30.68,0,0,0-4.92-.44,30.19,30.19,0,0,0-3.12.18,18.8,18.8,0,0,1-5.78-.18l-.5-.09a5.17,5.17,0,0,0-3.28-1.12,8.13,8.13,0,0,0-1.86.24c-1.19-2.94-4.64-4.61-6.84-4.84a33.36,33.36,0,0,0-3.4-.19c-1,0-1.84.06-2.56.12s-1.09.08-1.7.09a22,22,0,0,0-.55-3.92c-.08-.38-.16-.73-.22-1.12l.84-.07c2.1.16,3.73.2,5.21.21,1.72.23,2.89.42,4.09.62,1.77.29,3.59.59,7.2,1l.21,0a29.47,29.47,0,0,0,3.43.26,10.15,10.15,0,0,0,2-.17,48.12,48.12,0,0,0,10.56-3.2,39.52,39.52,0,0,1,8.88-2.69,14.21,14.21,0,0,0,3.49-1.4c.44-.22,1.08-.54,1.37-.66,12.67-2.45,30.53-10.29,49.44-18.59,16.32-7.16,33.14-14.54,44.84-17.4.17,3.86.24,6.07.31,8.39s.15,4.84.34,9.27C321.26,556.21,304.39,564.17,286.58,572.56Zm40.26-140.18c-4.31,8.68-5.44,19.55-3.17,30.62s7.59,20.75,15,27.18a30.26,30.26,0,0,0,18.58,7.86l-1.54.7a60.3,60.3,0,0,1-8.88,3.39,20.91,20.91,0,0,1-12.76-.42,35.35,35.35,0,0,1-7.37-4c-8.2-6.15-14.5-17-17.09-29.65-4.63-22.65,2.42-38.15,20.94-46a29.6,29.6,0,0,1,6.63-1.77A31.24,31.24,0,0,0,326.84,432.39Zm12.22-13.31-.33,0a34.59,34.59,0,0,0-8.53,2.08c-19,8.09-26.19,23.91-21.47,47a59.91,59.91,0,0,0,5,14.73,54.47,54.47,0,0,1-5.59-15.35c-2.42-11.84-1-23.6,3.87-33.11s12.59-15.56,21.81-17.45A31.21,31.21,0,0,1,344,416.9,26.84,26.84,0,0,0,339.06,419.08Zm8,83.91a61.07,61.07,0,0,0,9-3.44c1-.48,2.09-1,3.42-1.5a26.36,26.36,0,0,0,4.1-.51c.32-.07.64-.15,1-.23a34,34,0,0,1-13.06,6,30,30,0,0,1-9,.46A21.74,21.74,0,0,0,347.07,503ZM363,494.51a24.74,24.74,0,0,1-18.54-3.83c9.23-5.75,13.68-18.6,10.69-33.22a43.37,43.37,0,0,0-7.11-16.7l-.06.2c-1.66,4.44-6.27,7.16-10.72,5.5A9.06,9.06,0,0,1,332.09,435a8.69,8.69,0,0,1,3.2-4.07,26.13,26.13,0,0,0-3.48-1,25.07,25.07,0,0,1,15.75-10.85,24.45,24.45,0,0,1,4.9-.49,30.05,30.05,0,0,1,18.36,6.72c7.47,5.85,12.74,14.71,14.83,24.95a43.17,43.17,0,0,1-3.8,29.06C377.54,487.43,370.66,492.94,363,494.51Zm16.7-83.43c2.1,10.32,3,15.71,3.85,20.91.29,1.77.58,3.52.91,5.41A42.76,42.76,0,0,0,372.74,423c-7.07-5.54-15.48-8.09-23.41-7.19a34.56,34.56,0,0,0-15.91-.85c-9.89,2-18.18,8.63-23.33,18.6s-6.59,22.23-4.07,34.56,8.64,22.89,17.25,29.84a35.24,35.24,0,0,0,22.19,8.24,32.36,32.36,0,0,0,6.49-.66A36.86,36.86,0,0,0,370.3,495.2a33.62,33.62,0,0,0,14.29-14.34,43.73,43.73,0,0,0,5-17c.87,4.91,1.33,8.39,1.8,12,.68,5.18,1.38,10.53,3.38,20.32-9.59,3.57-14.84,5.72-19.93,7.82-5.48,2.25-11.15,4.58-22.46,8.74s-17.23,6.33-22.85,8.38-11.44,4.19-22.87,8.39c-11.18,4.11-16.77,5.69-22.69,7.36s-12,3.38-23.67,7.68-17.36,6.71-22.95,9.09-11.07,4.7-22.34,8.85c-.81.3-1.63.65-2.5,1l-.17.07c-3.05-9.19-4.65-14.83-6.2-20.31-1.9-6.72-3.87-13.68-8.49-27.09s-6.87-20.2-9.07-26.8-4.46-13.44-9.08-26.83c-2.28-6.61-3.88-11.6-5.14-15.73a5.39,5.39,0,0,1,1.15-.1h1.11a5.07,5.07,0,0,0,1.18-.1l3.36-.86c1,3.1,1.74,4.54,3.25,9.84.37,1.31,1.35,1.36,2.55.7,15.53-9.78,16.17-11,29.77-19.66l13.35-3.4c26.15-6.65,26.12-6.75,52.27-13.4s26.22-6.38,52.36-13l3.66-.93c14.24,2.31,14.69.49,29.19,2.92,1.19.66,4.54,0,4.91-1.35-.8-5.07-1.46-6-2.21-9.42l6.31-1.56C377.38,400.13,378.36,404.61,379.67,411.08Zm5-26.37a1.75,1.75,0,0,1,.4,0,2,2,0,0,1,.72.12,25.86,25.86,0,0,1,.55,2.69,30.45,30.45,0,0,0,.69,3.33,1.29,1.29,0,0,1-.57.8l-4,1c-.57-2.45-1.11-4.65-1.67-7Zm-169,18.6c13-2.83,19.62-4.11,26-5.35s13.21-2.55,26.35-5.41c13-2.82,19.59-4,26-5.23s13.26-2.44,26.43-5.31,19.68-4.24,26.1-5.6c6.09-1.28,12.37-2.61,24.09-5.16,1.28,6,2.23,10.18,3.08,13.78-16.62,3.92-20.06,4.57-42.43,9.92-26.37,6.31-26.19,7.07-52.56,13.37s-26.39,6.21-52.77,12.52-26.49,5.82-52.86,12.13a4.62,4.62,0,0,1-1,.09l-1.33,0-.43,0c-1.34-4.83-2.92-10.25-5.72-18.63L189.61,409Zm-105.25,43c10.85-6.58,16.84-9.89,22.64-13.1,6.31-3.49,12.83-7.09,25.33-14.73a31.07,31.07,0,0,0,2.89-2.09l1-.74c2.7,8.1,4.24,13.41,5.56,18.12-4,1.36-4.4,2-9.43,3.59-.91.29-2,1.64-2.81,2.08-21.19,11.07-25.23,12.42-40.4,20.08C114.09,456,112.63,451.91,110.49,446.28Zm-5.67,21,5.15-2.68c.75,2.32,1.4,4.43,2.12,6.69L108,473.19c0-.09-.1-.21-.16-.35a7.34,7.34,0,0,0-2.57-3.23,3,3,0,0,1-1.14-1.33A2,2,0,0,1,104.82,467.33Z"/><path class="cls-1" d="M336,399.24l.09,0a3,3,0,0,0-.15-.36C336,398.63,335.75,399.18,336,399.24Z"/></svg>