<svg id="Layer_1" data-name="Layer 1" xmlns="http://www.w3.org/2000/svg" viewBox="0 0 1070.85 194.48"><defs><style>.cls-1{fill:#00111e;}</style></defs><title>name + tagline only</title><path class="cls-1" d="M81.38,151.31a10.79,10.79,0,0,0-4.46-2.74,21.84,21.84,0,0,0-7-1H49.19v45.83h20.7a23.15,23.15,0,0,0,7.05-.91,10.69,10.69,0,0,0,4.51-2.66,8.61,8.61,0,0,0,2.16-4.12,21.51,21.51,0,0,0,.47-4.6v-21a20.44,20.44,0,0,0-.52-4.67A9.18,9.18,0,0,0,81.38,151.31Zm-11.5,38.34H53V151.41h16.9a18,18,0,0,1,5.59.71,7.29,7.29,0,0,1,3,1.75,5.71,5.71,0,0,1,1.38,2.59,15.3,15.3,0,0,1,.43,3.68v21a16.15,16.15,0,0,1-.4,3.66,5.13,5.13,0,0,1-1.32,2.47,7.19,7.19,0,0,1-3,1.68A19.23,19.23,0,0,1,69.89,189.65Z"/><polygon class="cls-1" points="105.59 151.41 117.88 151.41 117.88 189.65 105.59 189.65 105.59 193.45 133.81 193.45 133.81 189.65 121.68 189.65 121.68 151.41 133.81 151.41 133.81 147.61 105.59 147.61 105.59 151.41"/><path class="cls-1" d="M178.3,170.09l-16.78-3.42a3.81,3.81,0,0,1-2.13-1c-.25-.25-.67-1-.67-2.83v-6.5a4.51,4.51,0,0,1,1.5-3.5,6.05,6.05,0,0,1,4.3-1.43h19.11v-3.79H164.52a9.86,9.86,0,0,0-6.88,2.41,8.18,8.18,0,0,0-2.71,6.3v6.5c0,2.63.58,4.45,1.78,5.57a8.1,8.1,0,0,0,4.1,2l16.72,3.41a5.11,5.11,0,0,1,2.75,1.43c.34.36.9,1.36.9,4.09v4.6a5.28,5.28,0,0,1-1.7,4.1,6.74,6.74,0,0,1-4.81,1.62H153.42v3.79h21.25a10.43,10.43,0,0,0,7.46-2.67,9.07,9.07,0,0,0,2.85-6.84v-4.6c0-3.19-.65-5.4-2-6.76A8.84,8.84,0,0,0,178.3,170.09Z"/><path class="cls-1" d="M210,150.4c-2,1.87-3,4.94-3,9.11v22.21c0,4.06,1,7.07,3,8.94s5.65,2.79,11.23,2.79H235.9v-3.79H221.15c-5.42,0-7.62-1-8.52-1.76-1.25-1.12-1.88-3.2-1.88-6.18V159.5c0-3,.66-5.14,2-6.29.93-.82,3.15-1.8,8.44-1.8H235.9v-3.79H221.15C215.63,147.61,212,148.52,210,150.4Z"/><path class="cls-1" d="M287.5,150c-2.58-2.25-7.05-3.34-13.68-3.34s-11.08,1.1-13.61,3.36a11.37,11.37,0,0,0-3.83,8.85v23.4a11.37,11.37,0,0,0,3.83,8.85c2.53,2.26,7,3.36,13.61,3.36s11.1-1.09,13.68-3.34a11.26,11.26,0,0,0,3.92-8.86v-23.4A11.26,11.26,0,0,0,287.5,150Zm-2.59,38.29c-1.88,1.58-5.61,2.38-11.09,2.38-6.82,0-9.74-1.29-11-2.37a7.52,7.52,0,0,1-2.65-6v-23.4a7.52,7.52,0,0,1,2.65-6c1.25-1.08,4.18-2.37,11-2.37,5.48,0,9.21.8,11.09,2.38a7.44,7.44,0,0,1,2.72,6v23.4A7.43,7.43,0,0,1,284.91,188.3Z"/><path class="cls-1" d="M345.7,166.25a22.15,22.15,0,0,1-.3,3.67,15.46,15.46,0,0,1-.86,3.13l-5.25,12.73a14.13,14.13,0,0,1-1.61,3.12c-.23.33-.69.76-2,.76h-7c-1.3,0-1.76-.43-2-.76a14.1,14.1,0,0,1-1.62-3.15l-5.23-12.68a15.31,15.31,0,0,1-.87-3.14,22,22,0,0,1-.3-3.67V147.61h-3.79v18.63a29.3,29.3,0,0,0,.29,4.31,17.07,17.07,0,0,0,1.09,4l5.24,12.69a17.52,17.52,0,0,0,2.35,4.16,5.8,5.8,0,0,0,4.83,2.08h7a5.8,5.8,0,0,0,4.83-2.08,17.52,17.52,0,0,0,2.35-4.17l5.24-12.69a17.13,17.13,0,0,0,1.09-4,29.44,29.44,0,0,0,.29-4.31V147.61H345.7Z"/><polygon class="cls-1" points="373.7 193.45 403.43 193.45 403.43 189.65 377.49 189.65 377.49 172.11 397 172.11 397 168.32 377.49 168.32 377.49 151.41 403.43 151.41 403.43 147.61 373.7 147.61 373.7 193.45"/><path class="cls-1" d="M453.74,171.65a6.66,6.66,0,0,0,.82-1.47,17.59,17.59,0,0,0,1.06-6.55v-5.47a11.06,11.06,0,0,0-2.58-7.44c-1.77-2.06-4.45-3.1-8-3.1H425.49v45.83h3.79V175h20.95c2.62,0,4.52.52,5.65,1.55s1.65,2.55,1.65,4.72v12.13h3.79V181.32a9.59,9.59,0,0,0-2.87-7.41A9.71,9.71,0,0,0,453.74,171.65Zm-1.91-7.95a10.28,10.28,0,0,1-1.4,5.88c-.81,1.15-2.61,1.74-5.35,1.74H429.29V151.41h15.79c2.37,0,4,.59,5.1,1.79a7.17,7.17,0,0,1,1.65,5Z"/><path class="cls-1" d="M533.37,178.64,506.8,148.75l-.06-.07a6,6,0,0,0-.86-.74,2.55,2.55,0,0,0-2.92.13A2.32,2.32,0,0,0,502,150v43.46h3.79v-40l27.54,30.89v9.1h3.79V147.61h-3.79Z"/><polygon class="cls-1" points="562.09 193.45 591.82 193.45 591.82 189.65 565.88 189.65 565.88 172.11 585.39 172.11 585.39 168.32 565.88 168.32 565.88 151.41 591.82 151.41 591.82 147.61 562.09 147.61 562.09 193.45"/><path class="cls-1" d="M651.8,172.43q0,1.74,0,4.1a20,20,0,0,1-.32,3.59l-2,9,0,.14a.52.52,0,0,1-.17.24.42.42,0,0,1-.17.11h-.4a3.28,3.28,0,0,1-.71-.09l-.06-.13-6.51-14.62a11.46,11.46,0,0,0-2.15-3.43,4.34,4.34,0,0,0-3.09-1.17H632.6a4.33,4.33,0,0,0-3.1,1.17,11.48,11.48,0,0,0-2.16,3.45l-6.53,14.65,0,.08a3.27,3.27,0,0,1-.71.09h-.4a.42.42,0,0,1-.17-.12.51.51,0,0,1-.16-.23l-2-9.17a19.78,19.78,0,0,1-.32-3.6q0-2.37,0-4.1V147.61h-3.79v24.9q0,1.76,0,4.15a22.3,22.3,0,0,0,.39,4.19l2,9a5,5,0,0,0,1.45,2.62,3.89,3.89,0,0,0,2.62,1h.56a6,6,0,0,0,2-.36,3.24,3.24,0,0,0,2-1.88l6.5-14.75a7.36,7.36,0,0,1,1.25-2.22.86.86,0,0,1,.63-.22h3.57a.88.88,0,0,1,.63.22,7.36,7.36,0,0,1,1.25,2.22l6.48,14.7a3.27,3.27,0,0,0,2,1.93,6,6,0,0,0,2,.36h.55a3.89,3.89,0,0,0,2.62-1,5.08,5.08,0,0,0,1.46-2.66l2-9a22.54,22.54,0,0,0,.39-4.17q0-2.39,0-4.15v-24.9H651.8Z"/><path class="cls-1" d="M735.56,172.43q0,1.74,0,4.1a20,20,0,0,1-.32,3.59l-2,9,0,.14a.52.52,0,0,1-.17.24.42.42,0,0,1-.17.11h-.4a3.28,3.28,0,0,1-.71-.09l-.06-.13-6.51-14.62a11.46,11.46,0,0,0-2.15-3.43,4.34,4.34,0,0,0-3.09-1.17h-3.57a4.33,4.33,0,0,0-3.1,1.17,11.48,11.48,0,0,0-2.16,3.45l-6.53,14.65,0,.08a3.27,3.27,0,0,1-.71.09h-.4a.42.42,0,0,1-.17-.12.51.51,0,0,1-.16-.23l-2-9.17a19.78,19.78,0,0,1-.32-3.6q0-2.37,0-4.1V147.61h-3.79v24.9q0,1.76,0,4.15a22.3,22.3,0,0,0,.39,4.19l2,9a5,5,0,0,0,1.45,2.62,3.89,3.89,0,0,0,2.62,1H704a6,6,0,0,0,2-.36,3.24,3.24,0,0,0,2-1.88l6.5-14.75a7.36,7.36,0,0,1,1.25-2.22.86.86,0,0,1,.63-.22h3.57a.88.88,0,0,1,.63.22,7.36,7.36,0,0,1,1.25,2.22l6.48,14.7a3.27,3.27,0,0,0,2,1.93,6,6,0,0,0,2,.36h.55a3.89,3.89,0,0,0,2.62-1,5.08,5.08,0,0,0,1.46-2.66l2-9a22.54,22.54,0,0,0,.39-4.17q0-2.39,0-4.15v-24.9h-3.79Z"/><path class="cls-1" d="M793.81,150c-2.58-2.25-7.05-3.34-13.68-3.34s-11.08,1.1-13.61,3.36a11.37,11.37,0,0,0-3.83,8.85v23.4a11.37,11.37,0,0,0,3.83,8.85c2.53,2.26,7,3.36,13.61,3.36s11.1-1.09,13.68-3.34a11.26,11.26,0,0,0,3.92-8.86v-23.4A11.26,11.26,0,0,0,793.81,150Zm-2.59,38.29c-1.88,1.58-5.61,2.38-11.09,2.38-6.82,0-9.74-1.29-11-2.37a7.52,7.52,0,0,1-2.65-6v-23.4a7.52,7.52,0,0,1,2.65-6c1.25-1.08,4.18-2.37,11-2.37,5.48,0,9.21.8,11.09,2.38a7.44,7.44,0,0,1,2.72,6v23.4A7.43,7.43,0,0,1,791.22,188.3Z"/><path class="cls-1" d="M850.27,171.65a6.66,6.66,0,0,0,.82-1.47,17.59,17.59,0,0,0,1.06-6.55v-5.47a11.06,11.06,0,0,0-2.58-7.44c-1.77-2.06-4.45-3.1-8-3.1H822v45.83h3.79V175h20.95c2.62,0,4.52.52,5.65,1.55s1.65,2.55,1.65,4.72v12.13h3.79V181.32a9.59,9.59,0,0,0-2.87-7.41A9.71,9.71,0,0,0,850.27,171.65Zm-1.91-7.95a10.28,10.28,0,0,1-1.4,5.88c-.81,1.15-2.61,1.74-5.35,1.74H825.82V151.41h15.79c2.37,0,4,.59,5.1,1.79a7.17,7.17,0,0,1,1.65,5Z"/><polygon class="cls-1" points="909.44 189.65 884.83 189.65 884.83 147.61 881.04 147.61 881.04 193.45 913.23 193.45 913.23 174.03 909.44 174.03 909.44 189.65"/><path class="cls-1" d="M968.36,151.31a10.79,10.79,0,0,0-4.46-2.74,21.84,21.84,0,0,0-7-1h-20.7v45.83h20.7a23.15,23.15,0,0,0,7.05-.91,10.69,10.69,0,0,0,4.51-2.66,8.61,8.61,0,0,0,2.16-4.12,21.51,21.51,0,0,0,.47-4.6v-21a20.44,20.44,0,0,0-.52-4.67A9.18,9.18,0,0,0,968.36,151.31Zm-11.5,38.34H940V151.41h16.9a18,18,0,0,1,5.59.71,7.29,7.29,0,0,1,3,1.75,5.71,5.71,0,0,1,1.38,2.59,15.3,15.3,0,0,1,.43,3.68v21a16.15,16.15,0,0,1-.4,3.66,5.13,5.13,0,0,1-1.32,2.47,7.19,7.19,0,0,1-3,1.68A19.23,19.23,0,0,1,956.86,189.65Z"/><path class="cls-1" d="M1017.29,170.09l-16.78-3.42a3.81,3.81,0,0,1-2.13-1c-.25-.25-.67-1-.67-2.83v-6.5a4.51,4.51,0,0,1,1.5-3.5,6.05,6.05,0,0,1,4.3-1.43h19.11v-3.79H1003.5a9.86,9.86,0,0,0-6.88,2.41,8.18,8.18,0,0,0-2.71,6.3v6.5c0,2.63.58,4.45,1.78,5.57a8.1,8.1,0,0,0,4.1,2l16.72,3.41a5.11,5.11,0,0,1,2.75,1.43c.34.36.9,1.36.9,4.09v4.6a5.28,5.28,0,0,1-1.7,4.1,6.74,6.74,0,0,1-4.81,1.62H992.41v3.79h21.25a10.43,10.43,0,0,0,7.46-2.67,9.07,9.07,0,0,0,2.85-6.84v-4.6c0-3.19-.65-5.4-2-6.76A8.84,8.84,0,0,0,1017.29,170.09Z"/><path class="cls-1" d="M277.59,57.66c.44-18.72-1-37.44-.58-55.57l-21.18.29v1c-.73,23.07-.29,46.14.14,67.76-.44,5.66-3,11.32-8.85,10.16-7-.44-8.27-10.59-8.71-16.54V63.9c-7-1.16-17.27-1.45-22.49-.29-.72,14.8,1.89,37.15,17.7,41.79,8.71,1.89,19,1.74,27.14-2.32C278.75,96.4,276.87,73.48,277.59,57.66Z"/><path class="cls-1" d="M432.86,3.25c0,.15.15.15.15.29-.73,9.14-.15,21.33.58,22.78,2.32.73,12.91-.58,17.41,1.74l.15.15c2.32,54.12.58,75.6,1,77.34,7-1.16,16.69.14,23.8-1v-.29c-1.16-63.41-1.31-74-.73-76.76,0-.15.14-.29.14-.44h.44c9.14-.44,14.07-.73,17.7,0a117.71,117.71,0,0,0,.58-22.49C474.21,2.38,452.59,3.1,432.86,3.25Z"/><path class="cls-1" d="M348,105c1.6-5.8,1.6-12.77,1.16-19v-.29c-13.21.44-25.25-.73-38-.73L311,84.8c-.44-4.64-1-12.48,0-18.14,2-1.6,11.61,0,17.56-1.6-.14-7.11.73-13.64-.29-20.17v-.14c-5.95-.15-12,0-17.85-.44l-.14-.15c-1.31-5.22,0-11.32-.15-17l.15-.15h.44c12.77-1.16,25.68,1,38-1.74v-.15c0-6.82,1-13.78,0-20.6,0-.87-37.58-.29-60.07.87-1.89,33.23-.15,65.59-.15,99.25C307.19,106.27,328.23,104.82,348,105Z"/><path class="cls-1" d="M380.76,26.75c1.6-1.6,4.79-1.89,7.26-2.32,11.32-.44,9,11.61,10.16,19.3,7.4,1.31,14.07,2.18,21.19.58,9.29-26.84-18.28-51.22-44.84-42.52a21.46,21.46,0,0,0-7.4,3.34,29.89,29.89,0,0,0-8,12.62,20,20,0,0,0-1.6,9.72c-.44,31.34-.29,46.29.44,60.22,1.6,16.25,19.15,21.19,32.94,19.3,21.19-.44,34.82-22.2,28.3-42.23-5.51-1.6-13.93-.14-19.44-.87-1,4.79.29,9.87-1.89,14.37-1.89,3.92-6.1,5.51-10.3,5.08-5.66-1.6-7.69-7.69-8.27-13.35-1.16-13.2,0-40.34.58-41.35A5.51,5.51,0,0,1,380.76,26.75Z"/><path class="cls-1" d="M64.72,38.07a31.49,31.49,0,0,0,.15-3.77v-.14C63.12,1.22,23.94-1.83,0,4.55c1.16,32.21-.14,71.83,1,100,6.53.73,18.86.87,24.23-.58.15,0,.29-.14.44-.14v-.15c-.73-28.15-.15-31.05-.58-36.42C43.53,70.28,62.39,56.5,64.72,38.07ZM22.93,46.63h-.44c-1.89-5.8-.87-14.8-1.31-21.77a.53.53,0,0,1,.44-.15c6.24-1.6,13.06-.58,17.85,3.34,5.08,3,5.8,10,2.61,14.37C37.44,47.07,29,46.2,22.93,46.63Z"/><path class="cls-1" d="M209.83,72.61c.73-10,.14-19.44.73-29.75a118.67,118.67,0,0,0-.29-14.37,32.87,32.87,0,0,0-2.32-9A21.28,21.28,0,0,0,202,10.65C190.82,2.09,172.82,1.8,160.06,8a14.76,14.76,0,0,0-3.34,2.61c-6,6.82-7.55,16.11-7.69,24.81-1,15.24.14,30.47.73,45.56.14,5.66.73,11.32,3.48,16.11,3.48,7.69,11.17,9.43,19.15,10.16a45.26,45.26,0,0,0,16.54-1.45c5.95-1.6,11.61-4.21,14.95-8.85,3.48-5.66,5.08-12.77,5.51-19.59ZM192.42,61.87c0,.44-.15,3.63-.29,7.55-.73,8.42.73,8.42-2.9,13.2-5.95,6.67-18.14,5.8-21.91-1.89-1.89-6.38-1.74-13.64-2.76-20.46-.44-8.13-.29-16.4,1.31-23.8a19.18,19.18,0,0,1,6.82-10c3-2.32,7.4-3.63,11.32-2,4.5,2.18,7.11,7,7.55,12.33.14,3.34.58,8.13.58,8.27l.29,9.87Z"/><path class="cls-1" d="M561,67.24c18.43,3,37.29-10.74,39.61-29.17a31.49,31.49,0,0,0,.15-3.77v-.14c-1.74-32.94-40.92-36-64.86-29.6,1.16,32.21-.14,71.83,1,100,6.53.73,18.86.87,24.23-.58.14,0,.29-.14.44-.14v-.15C560.84,75.51,561.43,72.61,561,67.24Zm-2.61-20.6c-1.89-5.8-.87-14.8-1.31-21.77a.53.53,0,0,1,.44-.15c6.24-1.6,13.06-.58,17.85,3.34,5.08,3,5.8,10,2.61,14.37-4.64,4.64-13.06,3.77-19.15,4.21Z"/><path class="cls-1" d="M114.49,61.14V61h.73c9.29-.58,15.24-5.66,18.86-12.62,12-20.17-2.76-45.27-25.68-46.43C94.32.34,81.11,2.38,70.23,4c1.45,9.72,2.18,101.43,1,101.43,1.89-.44,18.72,1.16,25.25-1.6-.44-7.4-1.89-26.7-.73-35.41l.29.44c8.27,10.16,16.4,27.57,20.17,36.42h.14c8.71.58,17.27-.29,24.09-.29h-.15C134.51,89,122.61,75.51,114.49,61.14Zm-7.55-19a61.89,61.89,0,0,1-14.66,0h-.15c-.72-4.35-.29-12.91-.72-17.85,6.82-2.76,13.93-3.48,18.14.44C114.92,28.93,114.34,40.54,106.94,42.13Z"/><path class="cls-1" d="M869.93,3.25c0,.15.15.15.15.29-.73,9.14-.15,21.33.58,22.78,2.32.73,12.91-.58,17.41,1.74l.15.15c2.32,54.12.58,75.6,1,77.34,7-1.16,16.69.14,23.8-1v-.29c-1.16-63.41-1.31-74-.73-76.76,0-.15.14-.29.14-.44h.44c9.14-.44,14.08-.73,17.7,0a117.67,117.67,0,0,0,.58-22.49C911.28,2.38,889.66,3.1,869.93,3.25Z"/><path class="cls-1" d="M786.34,97c3.48-5.66,5.08-12.77,5.51-19.59l.44-4.79c.73-10,.15-19.44.73-29.75a118.87,118.87,0,0,0-.29-14.37,32.9,32.9,0,0,0-2.32-9,21.28,21.28,0,0,0-5.95-8.85C773.28,2.09,755.29,1.8,742.52,8a14.75,14.75,0,0,0-3.34,2.61c-6,6.82-7.55,16.11-7.69,24.81-1,15.24.14,30.47.72,45.56.15,5.66.73,11.32,3.48,16.11,3.48,7.69,11.17,9.43,19.15,10.16a45.27,45.27,0,0,0,16.54-1.45C777.35,104.24,783,101.63,786.34,97ZM749.78,80.73C747.89,74.35,748,67.09,747,60.27c-.44-8.13-.29-16.4,1.31-23.8a19.19,19.19,0,0,1,6.82-10c3-2.32,7.4-3.63,11.32-2,4.5,2.18,7.11,7,7.54,12.33.14,3.34.58,8.13.58,8.27l.29,9.87v7c0,.44-.15,3.63-.29,7.55-.73,8.42.73,8.42-2.9,13.2C765.74,89.29,753.55,88.42,749.78,80.73Z"/><path class="cls-1" d="M801.29,4.55c1.16,32.21-.14,71.83,1,100,6.53.73,18.86.87,24.23-.58.15,0,.29-.14.44-.14v-.15c-.73-28.15-.14-31.05-.58-36.42,18.43,3,37.29-10.74,39.61-29.17a31.28,31.28,0,0,0,.15-3.77v-.14C864.41,1.22,825.23-1.83,801.29,4.55Zm42.08,37.87c-4.64,4.64-13.06,3.77-19.15,4.21h-.43c-1.89-5.8-.87-14.8-1.31-21.77a.53.53,0,0,1,.44-.15c6.24-1.6,13.06-.58,17.85,3.34C845.84,31.11,846.56,38.07,843.37,42.42Z"/><path class="cls-1" d="M962.22,27c12.77-1.16,25.68,1,38-1.74v-.15c0-6.82,1-13.78,0-20.6,0-.87-37.58-.29-60.07.87C938.27,38.65,940,71,940,104.67c18.72,1.6,39.76.14,59.49.29,1.6-5.8,1.6-12.77,1.16-19v-.29c-13.2.44-25.25-.73-38-.73l-.15-.14c-.44-4.64-1-12.48,0-18.14,2-1.6,11.61,0,17.56-1.6-.14-7.11.73-13.64-.29-20.17v-.14c-5.95-.15-12,0-17.85-.44l-.14-.15c-1.31-5.22,0-11.32-.15-17l.15-.15Z"/><path class="cls-1" d="M1070,36.62h.15c2.76-14.51-3.19-23.94-12.48-28.73-9.29-4.21-22.78-5.51-32.21-1.6-18.57,7.69-27.42,34.1-9.58,51.08a21.2,21.2,0,0,0,9.87,4.93c8.13,1.6,19.59,2.9,20.75,12.19,2.32,13.49-18.86,13.2-19.59.87-6.53.15-15.38-.87-22.2.15v.87c-1.16,18.43,17.27,29.31,34.25,29.75,11.9.44,23.36-4.79,28-16.69,4.64-10,4.5-22.49-2.32-31.2A35.45,35.45,0,0,0,1039.56,43c-4.06-.58-7.84-1.6-9.43-6.24a8.92,8.92,0,0,1,0-3.92c1.6-10.88,20.46-7,18.14,3.63C1055.08,38.36,1063.21,37.78,1070,36.62Z"/><path class="cls-1" d="M717.56,106.13a11.05,11.05,0,0,0,4.79-.73v-2.9c0-3.92-.14-7.69-.14-11.61,0-5.37.14-10.45.14-16.11,0-8.27,0-16.69-.14-24.81V3.25a46.86,46.86,0,0,0-9.58-.87,60.87,60.87,0,0,0-10.45.87c-.15,4.79-.29,8.85-.29,12.91,0,7,.44,13.35.44,21,0,3.34-.44,7.55-1,8-.44,0-11-21.48-12.19-24.23-3.48-8.13-4.79-9.14-7.54-16.25,0-.87-9.58-1.45-12-1.45a30.37,30.37,0,0,0-6.53.58c-1,12.33-1.31,25.54-1.31,38.89,0,18.14.44,34,.44,52.38v10.16c4.5,0,9.29.87,13.93.87a24,24,0,0,0,6.38-.73c-.15-3.34-.15-7.55-.15-12,0-16.25.44-36.86,1-36.86s1.16,2.18,1.89,4.35l1.45,4.35c4.5,12.33,11.17,25.83,17.56,40.19C708.13,105.4,713.64,106.13,717.56,106.13Z"/><path class="cls-1" d="M619.61,81c4.35,0,4.06-.58,9,.14,2.61,5.66,4.5,17.41,6.82,23.65h.14c6.24,1.31,13.64,1.74,19.44.58v-.15L644.14,54.47C641.82,44.75,634,10.65,632.24,3.1c-12.77,1.16-15.09.29-17.85.73-13.93,46.43-21,97.36-22.2,101.28.15.14.15.14.29.14,13.2-.14,18.72.58,20.31.15.14,0,.29-.15.44-.15C616.57,98.87,617,87.12,619.61,81Zm9.72-17.12c-3.63,0-7.4.15-10.74,0C622.66,34.15,623.53,13.84,629.34,63.9Z"/></svg>